<svg width="347" height="474" viewBox="0 0 347 474" fill="none" xmlns="http://www.w3.org/2000/svg">
<path opacity="0.1" d="M294.252 270.503L129.023 437.66C128.628 438.062 128.211 438.441 127.773 438.794L126.446 439.667C125.031 440.514 123.44 441.018 121.801 441.138C120.161 441.258 118.519 440.991 117.003 440.359C115.557 439.827 114.236 439.001 113.122 437.932C112.008 436.864 111.124 435.575 110.526 434.146C109.927 432.717 109.626 431.178 109.642 429.625C109.657 428.072 109.989 426.536 110.616 425.115L150.278 329.125L160.796 303.706C161.616 301.76 162.012 299.66 161.957 297.55C161.903 295.439 161.399 293.367 160.479 291.474C159.56 289.58 158.246 287.91 156.628 286.576C155.01 285.242 153.124 284.276 151.1 283.742L59.1324 260.28C57.0875 259.737 55.1848 258.755 53.5543 257.402C51.9237 256.048 50.6038 254.355 49.6845 252.437C48.7653 250.519 48.2684 248.421 48.2279 246.288C48.1873 244.155 48.6041 242.036 49.4496 240.077L144.501 46.2953C147.293 40.6795 151.889 36.1772 157.538 33.5253C163.187 30.8734 169.553 30.2291 175.594 31.6978L272.836 56.5056C275.868 57.3134 278.669 58.818 281.022 60.9016C283.375 62.9853 285.215 65.5915 286.398 68.5164C287.582 71.4412 288.077 74.6054 287.844 77.7612C287.612 80.9171 286.658 83.9791 285.058 86.7077L215.364 207.256C214.181 209.27 213.477 211.532 213.307 213.863C213.137 216.194 213.506 218.53 214.384 220.689C215.262 222.847 216.625 224.769 218.367 226.303C220.109 227.836 222.182 228.941 224.422 229.529L287.537 245.63C290.06 246.268 292.366 247.569 294.221 249.402C296.076 251.235 297.414 253.533 298.096 256.062C298.779 258.591 298.783 261.261 298.108 263.798C297.432 266.335 296.102 268.648 294.252 270.503Z" fill="url(#paint0_linear_4117_5391)"/>
<path opacity="0.6" d="M267.31 42.8183L267.861 42.9742C270.605 43.7919 273.141 45.2002 275.293 47.1054C277.587 49.1376 279.382 51.6802 280.537 54.5337C281.692 57.3872 282.175 60.4744 281.948 63.554C281.721 66.6336 280.79 69.622 279.229 72.2846L279.227 72.2872L209.534 192.833C208.313 194.913 207.586 197.249 207.41 199.656C207.235 202.063 207.615 204.477 208.522 206.707C209.429 208.936 210.839 210.922 212.639 212.508C214.439 214.093 216.581 215.234 218.898 215.842L282.017 231.944C284.452 232.56 286.68 233.817 288.472 235.588C290.263 237.358 291.556 239.578 292.216 242.023C292.876 244.466 292.879 247.046 292.227 249.498C291.574 251.951 290.288 254.187 288.5 255.98L288.499 255.981L123.269 423.137L123.269 423.139C122.892 423.523 122.492 423.885 122.074 424.223L120.776 425.075C119.431 425.877 117.922 426.355 116.366 426.469C114.805 426.583 113.241 426.329 111.798 425.727L111.777 425.719L111.266 425.515C110.085 425.01 109.002 424.294 108.07 423.401C107.006 422.38 106.161 421.149 105.589 419.783C105.017 418.417 104.729 416.945 104.744 415.459C104.759 413.974 105.076 412.506 105.676 411.146L105.68 411.136L145.342 315.145L155.86 289.727L155.859 289.726C156.706 287.715 157.116 285.546 157.059 283.366C157.003 281.184 156.481 279.042 155.53 277.084C154.58 275.127 153.222 273.4 151.548 272.02C149.875 270.64 147.924 269.64 145.829 269.088L53.8625 245.626C51.888 245.102 50.0507 244.154 48.476 242.847C46.9012 241.54 45.6256 239.903 44.7374 238.05C43.8493 236.196 43.3695 234.17 43.3304 232.108C43.2913 230.052 43.6906 228.008 44.5039 226.118L139.55 32.3463L139.551 32.3475C142.293 26.8323 146.806 22.4109 152.352 19.8072C157.725 17.2849 163.758 16.6132 169.521 17.8843L170.078 18.0132L267.31 42.8183Z" stroke="url(#paint1_linear_4117_5391)"/>
<defs>
<linearGradient id="paint0_linear_4117_5391" x1="-10.6166" y1="94.7279" x2="326.798" y2="398.721" gradientUnits="userSpaceOnUse">
<stop stop-color="white" stop-opacity="0.2"/>
<stop offset="0.235577" stop-color="white" stop-opacity="0"/>
<stop offset="0.471154" stop-color="white" stop-opacity="0.4"/>
<stop offset="0.668269" stop-color="white" stop-opacity="0"/>
<stop offset="0.79916" stop-color="white" stop-opacity="0.7"/>
<stop offset="1" stop-color="white" stop-opacity="0"/>
</linearGradient>
<linearGradient id="paint1_linear_4117_5391" x1="-16.0146" y1="80.5575" x2="321.4" y2="384.55" gradientUnits="userSpaceOnUse">
<stop stop-color="white" stop-opacity="0.2"/>
<stop offset="0.235577" stop-color="white" stop-opacity="0"/>
<stop offset="0.471154" stop-color="white" stop-opacity="0.4"/>
<stop offset="0.668269" stop-color="white" stop-opacity="0"/>
<stop offset="0.79916" stop-color="white" stop-opacity="0.7"/>
<stop offset="1" stop-color="white" stop-opacity="0"/>
</linearGradient>
</defs>
</svg>
