<svg width="24" height="24" viewBox="0 0 24 24" fill="none" xmlns="http://www.w3.org/2000/svg">
<ellipse cx="10.7432" cy="11.3167" rx="7.5" ry="9" fill="white"/>
<path d="M13.5001 3.00024C18.4705 3.00043 22.5001 7.0298 22.5001 12.0002C22.5001 16.9707 18.4705 21.0001 13.5001 21.0002C8.52956 21.0002 4.50013 16.9708 4.50012 12.0002C4.50012 9.75545 5.32311 7.7039 6.68232 6.12748L6.00012 16.7145L10.2858 19.7145L12.0001 18.8574L16.7144 12.0002L13.7144 3.42882H10.7512C11.6177 3.15118 12.5414 3.00024 13.5001 3.00024Z" fill="#F39200"/>
<path d="M22.5001 12.0002C22.5001 7.02976 18.4705 3.0004 13.5001 3.00021C12.5414 3.00021 11.6177 3.15115 10.7512 3.42878H13.7144L16.7144 12.0002L12.0001 18.8574L10.2858 19.7145L6.00009 16.7145L6.68229 6.12744C5.32308 7.70387 4.50009 9.75542 4.50009 12.0002C4.50009 16.9708 8.52953 21.0002 13.5001 21.0002C18.4705 21 22.5001 16.9707 22.5001 12.0002ZM23.3447 12.5075C23.0892 17.5476 19.0474 21.5891 14.0073 21.8448L13.5001 21.8574C8.22626 21.8574 3.91951 17.7157 3.6555 12.5075L3.64294 12.0002C3.64294 9.54186 4.54476 7.29323 6.03273 5.56745L7.70182 3.63218L6.88653 16.2884L10.3586 18.7192L11.4183 18.1894L15.761 11.873L13.1058 4.28592H10.7512L10.49 2.61265C11.4394 2.30852 12.451 2.14307 13.5001 2.14307L14.0073 2.15562C19.2154 2.4198 23.3572 6.72646 23.3572 12.0002L23.3447 12.5075Z" fill="#FFC121"/>
<path d="M10.5501 18.2L14.9241 9.443H11.9001V3.8L7.40012 12.557H10.5501V18.2ZM11.0001 2C13.4751 2 15.5901 2.9 17.3451 4.655C19.1001 6.41 20.0001 8.525 20.0001 11C20.0001 13.475 19.1001 15.59 17.3451 17.345C15.5901 19.1 13.4751 20 11.0001 20C8.52512 20 6.41012 19.1 4.65512 17.345C2.90012 15.59 2.00012 13.475 2.00012 11C2.00012 8.525 2.90012 6.41 4.65512 4.655C6.41012 2.9 8.52512 2 11.0001 2Z" fill="#F3AF00"/>
<path d="M10.5501 18.2L14.9241 9.443H11.9001V3.8L7.40006 12.557H10.5501V18.2ZM11.0001 2C13.4751 2 15.5901 2.9 17.3451 4.655C19.1001 6.41 20.0001 8.525 20.0001 11C20.0001 13.475 19.1001 15.59 17.3451 17.345C15.5901 19.1 13.4751 20 11.0001 20C8.52506 20 6.41006 19.1 4.65506 17.345C2.90006 15.59 2.00006 13.475 2.00006 11C2.00006 8.525 2.90006 6.41 4.65506 4.655C6.41006 2.9 8.52506 2 11.0001 2Z" fill="#F3AF00"/>
<path d="M19.7143 11.1429C19.7143 6.40906 15.8767 2.5715 11.1429 2.5715C6.409 2.5715 2.57144 6.40906 2.57144 11.1429C2.57144 15.8768 6.409 19.7143 11.1429 19.7143V20.5715C5.93561 20.5715 1.71429 16.3502 1.71429 11.1429C1.71429 5.93567 5.93561 1.71436 11.1429 1.71436C16.3501 1.71436 20.5714 5.93567 20.5714 11.1429C20.5714 16.3502 16.3501 20.5715 11.1429 20.5715V19.7143C15.8767 19.7143 19.7143 15.8768 19.7143 11.1429Z" fill="#FFC121"/>
</svg>
