<svg width="24" height="24" viewBox="0 0 24 24" fill="none" xmlns="http://www.w3.org/2000/svg">
<g clip-path="url(#clip0_4301_61029)">
<circle cx="12" cy="12.1992" r="10.2828" transform="rotate(10.6083 12 12.1992)" fill="#F39200"/>
<path fill-rule="evenodd" clip-rule="evenodd" d="M15.6575 3.22043L13.0028 2.6172C12.9523 2.60572 12.899 2.62744 12.8654 2.67616L6.70817 11.3676C6.63452 11.4703 6.68016 11.6318 6.79154 11.6571L9.92318 12.3688L6.8002 19.587C6.73969 19.7494 7.10405 19.978 7.17755 19.9439C9.66461 18.7943 19.5679 10.355 19.5679 10.355C19.6776 10.2693 19.6443 10.0634 19.5152 10.0341L15.5593 9.13514L18.5025 6.02806C18.3726 5.82908 18.2363 5.6357 18.0945 5.44844C17.9937 5.31525 17.8897 5.18523 17.783 5.05845C17.5954 4.83614 17.3994 4.62388 17.1946 4.42269C16.7242 3.95994 16.2098 3.55557 15.6575 3.22043Z" fill="#E08700"/>
<path fill-rule="evenodd" clip-rule="evenodd" d="M16.8553 5.88712L16.163 6.72001L15.4298 7.60234L15.0251 8.0889L14.4526 8.77757L17.8177 9.6103L17.8355 9.61469C17.9458 9.642 17.9655 9.85143 17.8668 9.9411L17.1204 10.6255L12.6177 14.7541L12.2955 15.0496L6.8458 20.0461C6.73503 20.1491 6.61218 19.9908 6.67152 19.8238L7.4492 17.6733L7.86788 16.5155L8.55053 14.6279L8.8947 13.6762L9.43186 12.1909L7.73179 11.7702L6.75388 11.5282C6.73051 11.5213 6.70711 11.5048 6.69233 11.4836C6.67725 11.4624 6.66692 11.4355 6.66175 11.4062C6.65213 11.3504 6.66171 11.2858 6.69464 11.2345L6.74116 11.1613L7.05311 10.6707L7.52855 9.92233L7.96573 9.23437L10.323 5.52497L10.7827 4.80155L12.4094 2.24193L12.4178 2.22948C12.7093 2.25001 13.0019 2.29553 13.2941 2.36785C13.5134 2.42211 13.7278 2.49006 13.9371 2.5713C14.0839 2.62832 14.2282 2.69167 14.3698 2.76121C14.441 2.79628 14.5115 2.83262 14.5815 2.87065L14.6796 2.92544L14.8083 3.00125C14.9376 3.07939 15.0642 3.16269 15.1881 3.2515C15.6511 3.58226 16.0781 3.98444 16.4646 4.44707C16.501 4.49073 16.5647 4.50552 16.6284 4.52034C16.6944 4.53566 16.7605 4.55102 16.7967 4.5984C16.8406 4.6559 16.9137 4.68302 16.987 4.71019C17.0639 4.73872 17.1409 4.76729 17.1845 4.83112C17.2266 4.89281 17.3078 4.94007 17.3895 4.98766C17.4763 5.03819 17.5638 5.0891 17.6056 5.15804L16.8553 5.88712Z" fill="#FFC328"/>
<path d="M2.70453 7.79917C4.48209 4.04009 8.41718 1.66401 12.6547 1.93964C13.0651 1.96634 13.4786 2.01715 13.8931 2.09478C14.0122 2.1171 14.1303 2.14199 14.2477 2.1682C14.9175 2.31865 15.5666 2.53315 16.1759 2.80264C16.3214 2.86698 16.4646 2.93448 16.6053 3.00488C17.2508 3.32773 17.8539 3.71567 18.4075 4.1574C18.6678 4.36506 18.9178 4.58463 19.1556 4.81538C19.2221 4.87999 19.2875 4.94578 19.3523 5.01208C19.4233 5.0848 19.4941 5.15898 19.5628 5.23372C19.6144 5.28981 19.6649 5.34691 19.7152 5.40411C19.8326 5.53753 19.9471 5.67359 20.0573 5.81275C20.1407 5.91797 20.222 6.02578 20.3011 6.13412C20.9178 6.97808 21.4068 7.91438 21.7446 8.91152C21.992 9.64208 22.1578 10.406 22.2349 11.1888C22.3283 12.1361 22.2915 13.1123 22.1075 14.0951L21.9967 14.6131C20.7666 19.7319 15.8464 23.0987 10.6294 22.3926L10.1072 22.3095C7.35779 21.7945 5.06991 20.2292 3.58138 18.1067C3.24692 17.6298 2.95311 17.1245 2.70314 16.5968L2.46765 16.0621C2.07762 15.1014 1.83073 14.0743 1.74733 13.0146C1.73519 12.8601 1.72611 12.705 1.72101 12.5491L1.71686 12.0795L1.73764 11.5462C1.751 11.3411 1.76984 11.1348 1.79582 10.9284L1.89278 10.3092C2.01759 9.64293 2.20436 9.00348 2.44549 8.39621L2.70453 7.79917ZM12.5632 3.35396C8.91408 3.11659 5.5193 5.166 3.98726 8.40591C3.6697 9.07755 3.43159 9.80179 3.28771 10.5696C3.22062 10.9278 3.17496 11.2846 3.15196 11.6377C3.14201 11.7905 3.13735 11.9441 3.13534 12.0976C3.1318 12.3684 3.14073 12.6378 3.16166 12.9038C3.23344 13.8159 3.44608 14.6993 3.78224 15.5274C4.03536 16.1509 4.35862 16.7432 4.74359 17.2922C6.02782 19.1233 7.9973 20.4705 10.3676 20.9146C15.1796 21.8158 19.8113 18.6452 20.7126 13.8332C20.8716 12.984 20.9037 12.1424 20.8234 11.3274C20.7569 10.6535 20.614 9.99652 20.4009 9.36726C20.1097 8.50762 19.688 7.69943 19.1556 6.9708C19.0866 6.87644 19.0163 6.78372 18.945 6.69376C18.8495 6.57324 18.7521 6.45505 18.6513 6.34052C18.6087 6.29202 18.5639 6.24316 18.5184 6.19369C18.4602 6.13049 18.4002 6.0673 18.3383 6.00391C18.2815 5.94577 18.2246 5.88859 18.1679 5.83353C17.9626 5.63433 17.7477 5.44425 17.5238 5.26558C17.0469 4.88505 16.5267 4.55176 15.9709 4.27376C15.8506 4.2136 15.7268 4.15622 15.601 4.1006C15.0762 3.8685 14.5165 3.68212 13.9374 3.55205V3.55066C13.8367 3.5282 13.7341 3.50898 13.6312 3.48971C13.2733 3.4227 12.917 3.37699 12.5632 3.35396Z" fill="#FFC328"/>
<path fill-rule="evenodd" clip-rule="evenodd" d="M19.3526 5.00945L17.8934 5.56186L17.5111 5.25157L16.752 6.01068L7.96563 9.23296L10.3229 5.52356L10.7826 4.80014L16.1755 2.80001L16.3142 2.86297L16.3722 2.8897C16.451 2.9263 16.5288 2.96413 16.6058 3.00251C17.2514 3.32532 17.8544 3.71235 18.4079 4.15427C18.6681 4.36191 18.9173 4.58157 19.1552 4.81251C19.222 4.87751 19.2876 4.943 19.3526 5.00945Z" fill="white" fill-opacity="0.6"/>
<path fill-rule="evenodd" clip-rule="evenodd" d="M12.6177 14.7531L7.86782 16.5146L8.55047 14.627L8.89465 13.6753L17.1204 10.6245L12.6177 14.7531ZM22.2045 10.9142L22.201 10.884L22.1891 10.7947C22.1789 10.7213 22.1679 10.6484 22.1562 10.5754C22.1743 10.688 22.1901 10.8009 22.2045 10.9142Z" fill="white" fill-opacity="0.6"/>
<path fill-rule="evenodd" clip-rule="evenodd" d="M3.77342 15.5761L2.46752 16.0605C2.59435 16.3728 2.73624 16.6781 2.89264 16.9755C3.098 17.367 3.32819 17.7445 3.58149 18.1058L4.93817 17.6024C4.88978 17.5391 4.8422 17.4752 4.79549 17.4105L4.72127 17.3064C4.34334 16.7677 4.02502 16.1873 3.77342 15.5761Z" fill="white" fill-opacity="0.6"/>
<path fill-rule="evenodd" clip-rule="evenodd" d="M4.76141 7.03125L2.70465 7.79427C2.33541 8.57494 2.05927 9.41532 1.89282 10.3041C1.81529 10.718 1.76364 11.1311 1.73687 11.5411L3.19004 11.0022C3.20381 10.9005 3.21934 10.7988 3.2367 10.6967L3.26118 10.5604C3.40507 9.7921 3.64402 9.06561 3.9632 8.39043C4.19022 7.91009 4.45818 7.45574 4.76141 7.03125Z" fill="white" fill-opacity="0.6"/>
<path fill-rule="evenodd" clip-rule="evenodd" d="M20.0581 5.81666C19.9461 5.67545 19.8303 5.53678 19.7112 5.40104L19.0933 5.63023L18.3391 5.99158L18.5158 6.18615L18.6056 6.28562L18.6502 6.33584C18.7426 6.44045 18.8321 6.54738 18.9193 6.65639L20.3056 6.14209C20.2689 6.09157 20.2314 6.04126 20.1935 5.99158L20.1032 5.87377L20.0581 5.81666Z" fill="white" fill-opacity="0.6"/>
<path fill-rule="evenodd" clip-rule="evenodd" d="M22.0417 9.96895C21.961 9.60951 21.8615 9.25592 21.7442 8.9094L20.665 9.30965L20.4163 9.37138L20.501 9.63713L20.5381 9.78367C20.5748 9.91202 20.6084 10.0416 20.6394 10.1717L20.6666 10.2897C20.7168 10.5144 20.7587 10.7418 20.7916 10.9712C20.804 11.0583 20.8153 11.146 20.8254 11.2338L20.8287 11.2624L20.8401 11.3706L20.8481 11.4562L20.8616 11.624L20.869 11.7419L22.2451 11.2316L22.2274 11.0672L22.2228 11.0283L22.2137 10.9543C22.199 10.8387 22.1829 10.7236 22.1645 10.6087L22.1538 10.5427C22.1335 10.421 22.1114 10.2994 22.0865 10.1786L22.0735 10.1158L22.0417 9.96895Z" fill="white" fill-opacity="0.6"/>
<path fill-rule="evenodd" clip-rule="evenodd" d="M7.52848 9.9212L16.163 6.71888L15.4296 7.60111L15.0251 8.08778L6.74109 11.1602L7.05297 10.6695L7.52848 9.9212Z" fill="white" fill-opacity="0.6"/>
</g>
<defs>
<clipPath id="clip0_4301_61029">
<rect width="24" height="24" fill="white"/>
</clipPath>
</defs>
</svg>
