<svg width="16" height="16" viewBox="0 0 16 16" fill="none" xmlns="http://www.w3.org/2000/svg">
<ellipse cx="7.16217" cy="7.54443" rx="5" ry="6" fill="white"/>
<path d="M9.00009 2C12.3137 2.00013 15.0001 4.68637 15.0001 8C15.0001 11.3136 12.3137 13.9999 9.00009 14C5.68638 14 3.00009 11.3137 3.00009 8C3.00009 6.50347 3.54875 5.13577 4.45489 4.08482L4.00009 11.1429L6.85723 13.1429L8.00009 12.5714L11.1429 8L9.14295 2.28571H7.1675C7.74517 2.10063 8.36097 2 9.00009 2Z" fill="#F39200"/>
<path d="M15.0001 8.00014C15.0001 4.68651 12.3137 2.00027 9.00008 2.00014C8.36095 2.00014 7.74516 2.10077 7.16749 2.28585H9.14294L11.1429 8.00014L8.00008 12.5716L6.85722 13.143L4.00008 11.143L4.45488 4.08496C3.54874 5.13591 3.00008 6.50361 3.00008 8.00014C3.00008 11.3138 5.68637 14.0001 9.00008 14.0001C12.3137 14 15.0001 11.3138 15.0001 8.00014ZM15.5631 8.33831C15.3928 11.6984 12.6983 14.3928 9.33825 14.5632L9.00008 14.5716C5.48419 14.5716 2.61302 11.8105 2.43702 8.33831L2.42865 8.00014C2.42865 6.36124 3.02986 4.86216 4.02184 3.71164L5.13457 2.42146L4.59104 10.859L6.90577 12.4795L7.61224 12.1263L10.5073 7.91532L8.73724 2.85728H7.16749L6.99338 1.74177C7.62627 1.53901 8.30072 1.42871 9.00008 1.42871L9.33825 1.43708C12.8103 1.6132 15.5715 4.48431 15.5715 8.00014L15.5631 8.33831Z" fill="#FFC121"/>
<path d="M7.0334 12.1335L9.94941 6.2955H7.9334V2.5335L4.9334 8.3715H7.0334V12.1335ZM7.3334 1.3335C8.9834 1.3335 10.3934 1.9335 11.5634 3.1035C12.7334 4.2735 13.3334 5.6835 13.3334 7.3335C13.3334 8.9835 12.7334 10.3935 11.5634 11.5635C10.3934 12.7335 8.9834 13.3335 7.3334 13.3335C5.6834 13.3335 4.2734 12.7335 3.1034 11.5635C1.9334 10.3935 1.3334 8.9835 1.3334 7.3335C1.3334 5.6835 1.9334 4.2735 3.1034 3.1035C4.2734 1.9335 5.6834 1.3335 7.3334 1.3335Z" fill="#F3AF00"/>
<path d="M7.0334 12.1335L9.94941 6.2955H7.9334V2.5335L4.9334 8.3715H7.0334V12.1335ZM7.3334 1.3335C8.9834 1.3335 10.3934 1.9335 11.5634 3.1035C12.7334 4.2735 13.3334 5.6835 13.3334 7.3335C13.3334 8.9835 12.7334 10.3935 11.5634 11.5635C10.3934 12.7335 8.9834 13.3335 7.3334 13.3335C5.6834 13.3335 4.2734 12.7335 3.1034 11.5635C1.9334 10.3935 1.3334 8.9835 1.3334 7.3335C1.3334 5.6835 1.9334 4.2735 3.1034 3.1035C4.2734 1.9335 5.6834 1.3335 7.3334 1.3335Z" fill="#F3AF00"/>
<path d="M13.1428 7.42878C13.1428 4.27287 10.5845 1.71449 7.42857 1.71449C4.27265 1.71449 1.71428 4.27287 1.71428 7.42878C1.71428 10.5847 4.27265 13.1431 7.42857 13.1431V13.7145C3.95706 13.7145 1.14285 10.9003 1.14285 7.42878C1.14285 3.95728 3.95706 1.14307 7.42857 1.14307C10.9001 1.14307 13.7143 3.95728 13.7143 7.42878C13.7143 10.9003 10.9001 13.7145 7.42857 13.7145V13.1431C10.5845 13.1431 13.1428 10.5847 13.1428 7.42878Z" fill="#FFC121"/>
</svg>
