<svg width="16" height="16" viewBox="0 0 16 16" fill="none" xmlns="http://www.w3.org/2000/svg">
<g clip-path="url(#clip0_5164_36200)">
<circle cx="8.00007" cy="8.13281" r="6.85517" transform="rotate(10.6083 8.00007 8.13281)" fill="#F39200"/>
<path fill-rule="evenodd" clip-rule="evenodd" d="M10.4383 2.14826L8.66853 1.7461C8.63486 1.73845 8.59932 1.75293 8.57688 1.78541L4.47207 7.57971C4.42298 7.64818 4.4534 7.75586 4.52765 7.77273L6.61541 8.24714L4.53342 13.0593C4.49309 13.1676 4.73599 13.3199 4.78499 13.2972C6.44303 12.5308 13.0452 6.90465 13.0452 6.90465C13.1183 6.84751 13.0962 6.71023 13.0101 6.69068L10.3728 6.0914L12.3349 4.02001C12.2484 3.88736 12.1575 3.75843 12.063 3.6336C11.9957 3.5448 11.9264 3.45812 11.8553 3.3736C11.7302 3.2254 11.5995 3.08389 11.463 2.94976C11.1494 2.64126 10.8065 2.37168 10.4383 2.14826Z" fill="#E08700"/>
<path fill-rule="evenodd" clip-rule="evenodd" d="M11.2368 3.92605L10.7753 4.48131L10.2865 5.06953L10.0167 5.3939L9.63504 5.85302L11.8784 6.40817L11.8903 6.4111C11.9639 6.4293 11.9769 6.56892 11.9111 6.6287L11.4136 7.08494L8.41178 9.83737L8.19695 10.0344L4.56383 13.3653C4.48998 13.434 4.40808 13.3285 4.44764 13.2172L4.96609 11.7835L5.24521 11.0117L5.70031 9.75325L5.92976 9.11879L6.28787 8.12858L5.15449 7.84812L4.50255 7.68679C4.48696 7.6822 4.47137 7.67114 4.46152 7.65702C4.45146 7.6429 4.44457 7.62497 4.44113 7.60546C4.43471 7.56824 4.4411 7.52514 4.46305 7.49098L4.49407 7.44218L4.70203 7.11511L5.01899 6.61619L5.31045 6.15755L6.88193 3.68461L7.18843 3.20233L8.27286 1.49592L8.27848 1.48762C8.4728 1.50131 8.66788 1.53166 8.8627 1.57987C9.00889 1.61604 9.15182 1.66135 9.29138 1.7155C9.3892 1.75352 9.48546 1.79575 9.57982 1.84211C9.62731 1.86549 9.67431 1.88972 9.72095 1.91507L9.78633 1.95159L9.87213 2.00214C9.95833 2.05423 10.0428 2.10976 10.1254 2.16897C10.434 2.38948 10.7187 2.65759 10.9763 2.96601C11.0006 2.99512 11.0431 3.00498 11.0856 3.01486C11.1296 3.02508 11.1736 3.03532 11.1977 3.0669C11.227 3.10524 11.2758 3.12332 11.3246 3.14143C11.3759 3.16045 11.4272 3.1795 11.4563 3.22205C11.4843 3.26317 11.5385 3.29468 11.593 3.32641C11.6508 3.3601 11.7091 3.39403 11.737 3.43999L11.2368 3.92605Z" fill="#FFC328"/>
<path d="M1.80304 5.19815C2.98808 2.69209 5.61147 1.10804 8.43646 1.29179C8.71012 1.30959 8.98574 1.34347 9.26206 1.39522C9.34147 1.41009 9.42023 1.42669 9.49847 1.44417C9.94505 1.54446 10.3778 1.68747 10.784 1.86712C10.8809 1.91001 10.9764 1.95502 11.0702 2.00195C11.5005 2.21718 11.9026 2.47581 12.2717 2.7703C12.4452 2.90874 12.6119 3.05512 12.7704 3.20895C12.8148 3.25203 12.8583 3.29589 12.9015 3.34009C12.9489 3.38857 12.9961 3.43802 13.0419 3.48785C13.0763 3.52524 13.1099 3.56331 13.1435 3.60143C13.2217 3.69038 13.2981 3.78109 13.3716 3.87386C13.4272 3.94401 13.4813 4.01589 13.5341 4.08811C13.9452 4.65075 14.2712 5.27495 14.4964 5.93971C14.6613 6.42675 14.7719 6.93605 14.8233 7.45792C14.8855 8.08943 14.8611 8.74026 14.7383 9.3954L14.6645 9.74079C13.8444 13.1533 10.5643 15.3978 7.08632 14.9271L6.73816 14.8717C4.90521 14.5284 3.37996 13.4848 2.38761 12.0698C2.16463 11.7519 1.96876 11.415 1.80212 11.0632L1.64512 10.7068C1.3851 10.0663 1.22051 9.38159 1.16491 8.67508C1.15681 8.5721 1.15076 8.46867 1.14736 8.36479L1.14459 8.05173L1.15844 7.69618C1.16735 7.5594 1.17991 7.4219 1.19723 7.28431L1.26188 6.87151C1.34508 6.42731 1.4696 6.00101 1.63035 5.59617L1.80304 5.19815ZM8.37551 2.23467C5.94274 2.07643 3.67956 3.4427 2.65819 5.60263C2.44649 6.0504 2.28775 6.53322 2.19183 7.04512C2.1471 7.28393 2.11666 7.52176 2.10133 7.75713C2.09469 7.85904 2.09159 7.96144 2.09024 8.06373C2.08788 8.2443 2.09384 8.42387 2.10779 8.6012C2.15565 9.20928 2.29741 9.79821 2.52151 10.3503C2.69026 10.7659 2.90577 11.1609 3.16242 11.5268C4.01856 12.7476 5.33155 13.6457 6.91178 13.9417C10.1197 14.5426 13.2076 12.4288 13.8084 9.22086C13.9144 8.65467 13.9358 8.09364 13.8823 7.55027C13.838 7.10106 13.7427 6.66305 13.6006 6.24354C13.4065 5.67045 13.1253 5.13165 12.7704 4.6459C12.7244 4.58299 12.6775 4.52118 12.63 4.4612C12.5664 4.38086 12.5014 4.30206 12.4342 4.22571C12.4058 4.19338 12.3759 4.16081 12.3456 4.12782C12.3068 4.08569 12.2668 4.04357 12.2255 4.00131C12.1877 3.96254 12.1498 3.92442 12.1119 3.88772C11.9751 3.75492 11.8318 3.6282 11.6825 3.50909C11.3646 3.2554 11.0178 3.0332 10.6473 2.84787C10.5671 2.80776 10.4846 2.76951 10.4007 2.73243C10.0508 2.5777 9.67766 2.45344 9.29161 2.36673V2.36581C9.22452 2.35083 9.15609 2.33802 9.08752 2.32517C8.84892 2.2805 8.61135 2.25003 8.37551 2.23467Z" fill="#FFC328"/>
<path fill-rule="evenodd" clip-rule="evenodd" d="M12.9017 3.34093L11.9289 3.70921L11.674 3.50235L11.168 4.00842L5.3104 6.15661L6.88189 3.68367L7.18838 3.20139L10.7837 1.86798L10.8761 1.90995L10.9148 1.92777C10.9673 1.95217 11.0192 1.97739 11.0705 2.00298C11.5009 2.21818 11.9029 2.47621 12.2719 2.77081C12.4454 2.90924 12.6115 3.05568 12.7701 3.20964C12.8146 3.25298 12.8584 3.29664 12.9017 3.34093Z" fill="white" fill-opacity="0.6"/>
<path fill-rule="evenodd" clip-rule="evenodd" d="M8.41178 9.83543L5.24522 11.0097L5.70031 9.7513L5.92976 9.11684L11.4136 7.08299L8.41178 9.83543ZM14.803 7.27614L14.8006 7.25598L14.7928 7.19648C14.786 7.14753 14.7786 7.09894 14.7708 7.05027C14.7828 7.12533 14.7934 7.2006 14.803 7.27614Z" fill="white" fill-opacity="0.6"/>
<path fill-rule="evenodd" clip-rule="evenodd" d="M2.5156 10.3828L1.64499 10.7057C1.72954 10.9139 1.82414 11.1174 1.9284 11.3157C2.06532 11.5767 2.21878 11.8284 2.38764 12.0693L3.29209 11.7337C3.25983 11.6914 3.22811 11.6489 3.19697 11.6057L3.14749 11.5363C2.89554 11.1772 2.68333 10.7903 2.5156 10.3828Z" fill="white" fill-opacity="0.6"/>
<path fill-rule="evenodd" clip-rule="evenodd" d="M3.17426 4.69141L1.80308 5.20009C1.55692 5.72053 1.37283 6.28078 1.26186 6.87329C1.21017 7.14923 1.17574 7.42465 1.15789 7.698L2.12668 7.33874C2.13585 7.27093 2.14621 7.20311 2.15778 7.13505L2.1741 7.04415C2.27003 6.53197 2.42933 6.04764 2.64211 5.59752C2.79346 5.2773 2.9721 4.9744 3.17426 4.69141Z" fill="white" fill-opacity="0.6"/>
<path fill-rule="evenodd" clip-rule="evenodd" d="M13.372 3.88168C13.2973 3.78754 13.2202 3.69509 13.1408 3.6046L12.7288 3.7574L12.226 3.99829L12.3438 4.12801L12.4037 4.19432L12.4334 4.2278C12.495 4.29754 12.5547 4.36882 12.6129 4.4415L13.537 4.09864C13.5125 4.06495 13.4876 4.03141 13.4623 3.99829L13.4021 3.91975L13.372 3.88168Z" fill="white" fill-opacity="0.6"/>
<path fill-rule="evenodd" clip-rule="evenodd" d="M14.6944 6.64597C14.6406 6.40634 14.5743 6.17061 14.4961 5.9396L13.7766 6.20643L13.6108 6.24759L13.6673 6.42475L13.6921 6.52244C13.7165 6.60801 13.7389 6.69439 13.7596 6.78116L13.7777 6.85979C13.8112 7.00959 13.8391 7.16122 13.861 7.31412C13.8693 7.37222 13.8768 7.43065 13.8836 7.48918L13.8858 7.50828L13.8933 7.58038L13.8987 7.63745L13.9077 7.74936L13.9126 7.82791L14.8301 7.4877L14.8182 7.37815L14.8152 7.35218L14.8091 7.30288C14.7993 7.22581 14.7885 7.14903 14.7763 7.07246L14.7692 7.02848C14.7556 6.94735 14.7409 6.86624 14.7243 6.78575L14.7156 6.74386L14.6944 6.64597Z" fill="white" fill-opacity="0.6"/>
<path fill-rule="evenodd" clip-rule="evenodd" d="M5.01899 6.61544L10.7753 4.48056L10.2864 5.06871L10.0167 5.39315L4.49406 7.44143L4.70198 7.11429L5.01899 6.61544Z" fill="white" fill-opacity="0.6"/>
</g>
<defs>
<clipPath id="clip0_5164_36200">
<rect width="16" height="16" fill="white"/>
</clipPath>
</defs>
</svg>
