<svg width="32" height="32" viewBox="0 0 32 32" fill="none" xmlns="http://www.w3.org/2000/svg">
<path d="M22.337 1.96092L5.21197 11.848L5.44479 12.2513C5.5735 12.4742 5.51109 12.7507 5.30534 12.8695C5.09954 12.9883 4.82891 12.9041 4.70023 12.6812L4.46741 12.2779L0.74456 14.4273C0.333375 14.6647 0.208466 15.2183 0.46565 15.6637L2.51526 19.2137C2.63263 19.417 2.83645 19.5569 3.05778 19.5717C4.08678 19.6405 5.09424 20.2417 5.68 21.2562C6.26573 22.2708 6.28269 23.4439 5.82772 24.3694C5.72987 24.5685 5.74916 24.815 5.8665 25.0183L7.91611 28.5683C8.17327 29.0137 8.71513 29.1823 9.12632 28.9449L12.8492 26.7956L12.6163 26.3923C12.4876 26.1694 12.55 25.8929 12.7558 25.7741C12.9616 25.6553 13.2322 25.7395 13.3609 25.9624L13.5937 26.3657L30.7187 16.4785C31.1299 16.2411 31.2548 15.6876 30.9977 15.2421L23.5472 2.33757C23.29 1.89212 22.7482 1.72352 22.337 1.96092ZM12.4296 24.3494C12.5583 24.5723 12.4959 24.8488 12.2901 24.9676C12.0843 25.0864 11.8137 25.0021 11.685 24.7792L11.2194 23.9727C11.0907 23.7498 11.1531 23.4733 11.3588 23.3545C11.5646 23.2357 11.8353 23.32 11.9639 23.5428L12.4296 24.3494ZM11.0326 21.9297C11.1613 22.1526 11.0989 22.4291 10.8932 22.5479C10.6874 22.6667 10.4167 22.5825 10.2881 22.3596L9.82241 21.5531C9.69371 21.3301 9.75612 21.0536 9.96187 20.9349C10.1677 20.816 10.4383 20.9003 10.567 21.1232L11.0326 21.9297ZM9.63567 19.5101C9.76437 19.7331 9.70197 20.0095 9.49621 20.1283C9.29042 20.2471 9.01979 20.1629 8.89111 19.94L8.42546 19.1335C8.29675 18.9105 8.35916 18.6341 8.56491 18.5153C8.77071 18.3965 9.04134 18.4807 9.17002 18.7036L9.63567 19.5101ZM8.23872 17.0905C8.36742 17.3135 8.30502 17.59 8.09926 17.7087C7.89347 17.8276 7.62284 17.7433 7.49416 17.5204L7.02851 16.7139C6.8998 16.491 6.96221 16.2145 7.16796 16.0957C7.37376 15.9769 7.64439 16.0611 7.77307 16.284L8.23872 17.0905ZM6.84174 14.6709C6.97045 14.8938 6.90804 15.1703 6.70229 15.2891C6.49649 15.4079 6.22586 15.3236 6.09718 15.1008L5.63153 14.2942C5.50283 14.0713 5.56524 13.7948 5.77099 13.676C5.97678 13.5572 6.24741 13.6415 6.37609 13.8644L6.84174 14.6709Z" fill="#1C6EA4"/>
<path d="M7.4538 11.9517L22.4985 3.26568C22.5156 3.25578 22.5417 3.25025 22.5761 3.26146C22.6112 3.273 22.6509 3.30131 22.6785 3.34894L29.6116 15.3574C29.6391 15.4052 29.6437 15.4536 29.6361 15.4898C29.6287 15.5254 29.6109 15.545 29.5937 15.555L14.549 24.241C14.5318 24.2509 14.5059 24.2566 14.4714 24.2452C14.4362 24.2336 14.3966 24.2055 14.369 24.1577L7.43591 12.1492C7.40845 12.1015 7.40375 12.0531 7.41133 12.0168C7.41883 11.9815 7.43666 11.9616 7.4538 11.9517Z" fill="#1AB6BE" stroke="#B8E9E9" stroke-width="0.6"/>
<path d="M12.2784 16.0007L21.1605 15.309L19.8324 13.0086L24.3181 10.4188L15.3807 11.0147L16.7641 13.4109L12.2784 16.0007Z" fill="white"/>
</svg>
