<svg width="24" height="24" viewBox="0 0 24 24" fill="none" xmlns="http://www.w3.org/2000/svg">
<path d="M16.7527 1.47062L3.90897 8.88597L4.08359 9.18842C4.18012 9.35562 4.13331 9.56298 3.979 9.65207C3.82466 9.74119 3.62168 9.67798 3.52517 9.51083L3.35055 9.20838L0.55842 10.8204C0.250031 10.9985 0.156349 11.4136 0.349238 11.7477L1.88645 14.4102C1.97447 14.5627 2.12734 14.6676 2.29334 14.6787C3.06509 14.7303 3.82068 15.1812 4.26 15.9421C4.6993 16.703 4.71202 17.5829 4.37079 18.277C4.29741 18.4263 4.31187 18.6112 4.39987 18.7636L5.93708 21.4262C6.12995 21.7602 6.53635 21.8867 6.84474 21.7086L9.63687 20.0966L9.46225 19.7942C9.36573 19.627 9.41253 19.4196 9.56685 19.3305C9.72119 19.2414 9.92417 19.3046 10.0207 19.4718L10.1953 19.7742L23.0391 12.3588C23.3474 12.1808 23.4411 11.7656 23.2482 11.4315L17.6604 1.75312C17.4675 1.41903 17.0611 1.29258 16.7527 1.47062ZM9.3222 18.262C9.41873 18.4291 9.37192 18.6365 9.21761 18.7256C9.06326 18.8147 8.86029 18.7515 8.76378 18.5844L8.41454 17.9795C8.31801 17.8123 8.36482 17.6049 8.51913 17.5158C8.67348 17.4267 8.87645 17.4899 8.97296 17.6571L9.3222 18.262ZM8.27447 16.4472C8.37099 16.6144 8.32419 16.8218 8.16987 16.9109C8.01553 17 7.81255 16.9368 7.71605 16.7696L7.36681 16.1647C7.27028 15.9975 7.31709 15.7902 7.4714 15.7011C7.62575 15.612 7.82872 15.6752 7.92523 15.8423L8.27447 16.4472ZM7.22675 14.6325C7.32328 14.7997 7.27647 15.0071 7.12216 15.0962C6.96782 15.1853 6.76484 15.1221 6.66833 14.9549L6.3191 14.35C6.22257 14.1828 6.26937 13.9755 6.42369 13.8864C6.57803 13.7973 6.78101 13.8605 6.87752 14.0276L7.22675 14.6325ZM6.17904 12.8178C6.27557 12.985 6.22876 13.1924 6.07445 13.2815C5.9201 13.3706 5.71713 13.3074 5.62062 13.1402L5.27138 12.5354C5.17485 12.3682 5.22166 12.1608 5.37597 12.0717C5.53032 11.9826 5.73329 12.0458 5.8298 12.2129L6.17904 12.8178ZM5.13131 11.0031C5.22783 11.1703 5.18103 11.3777 5.02671 11.4668C4.87237 11.5559 4.66939 11.4927 4.57289 11.3255L4.22365 10.7206C4.12712 10.5534 4.17393 10.3461 4.32824 10.257C4.48259 10.1679 4.68556 10.2311 4.78207 10.3982L5.13131 11.0031Z" fill="#2D848D"/>
<path d="M16.9056 2.51745C16.9064 2.5176 16.9078 2.51725 16.9091 2.51768C16.9177 2.52058 16.9328 2.52932 16.9443 2.54926L22.144 11.5554C22.1554 11.5753 22.1555 11.5927 22.1538 11.6016L22.153 11.6043L10.8786 18.1136L10.8768 18.1124C10.8682 18.1095 10.8532 18.1008 10.8417 18.0808L5.64196 9.07465C5.63037 9.05457 5.63036 9.03727 5.63219 9.02842C5.63241 9.02737 5.63269 9.02643 5.6329 9.02575L16.9056 2.51745Z" fill="#1AB6BE" stroke="#B8E9E9" stroke-width="0.6"/>
<path d="M9.20832 12.0006L15.8699 11.4818L14.8738 9.75652L18.2381 7.81414L11.535 8.26107L12.5726 10.0582L9.20832 12.0006Z" fill="white"/>
</svg>
