<svg width="24" height="28" viewBox="0 0 24 28" fill="none" xmlns="http://www.w3.org/2000/svg">
<path d="M19.7996 0H2.2C1.61674 0.000665443 1.05756 0.232659 0.645136 0.645087C0.232709 1.05751 0.000714574 1.61669 4.91316e-05 2.19995V24.1467C-0.00272664 24.5592 0.112167 24.964 0.331259 25.3136C0.550352 25.6632 0.864563 25.943 1.23705 26.1204C1.61621 26.3027 2.03939 26.3733 2.4572 26.3241C2.87501 26.2749 3.27021 26.1079 3.59666 25.8425C3.7903 25.6714 4.04239 25.5814 4.30064 25.5911C4.74315 25.5911 4.9292 25.747 5.32645 26.1329C5.61523 26.4678 5.9728 26.7364 6.37479 26.9205C6.77677 27.1047 7.21373 27.2 7.65589 27.2C8.09804 27.2 8.535 27.1047 8.93699 26.9205C9.33898 26.7364 9.69654 26.4678 9.98532 26.1329C10.3876 25.747 10.5674 25.5911 11.0086 25.5911C11.4499 25.5911 11.6296 25.747 12.0307 26.1329C12.3191 26.467 12.6761 26.7351 13.0774 26.9188C13.4787 27.1025 13.9149 27.1976 14.3563 27.1976C14.7977 27.1976 15.2339 27.1025 15.6352 26.9188C16.0365 26.7351 16.3936 26.467 16.682 26.1329C17.0843 25.747 17.264 25.5911 17.7053 25.5911C17.9582 25.5809 18.2056 25.6677 18.3967 25.8337C18.7244 26.0988 19.1206 26.2653 19.5393 26.3138C19.9579 26.3623 20.3817 26.2909 20.7613 26.1078C21.1328 25.9306 21.4461 25.6511 21.6645 25.3023C21.8829 24.9534 21.9974 24.5495 21.9946 24.1379V2.19995C21.9939 1.61756 21.7626 1.05914 21.3513 0.646858C20.9399 0.234574 20.382 0.00199411 19.7996 0Z" fill="#0A6267"/>
<path d="M20.8277 0H3.22808C2.64482 0.000665443 2.08564 0.232659 1.67321 0.645087C1.26078 1.05751 1.02879 1.61669 1.02813 2.19995V24.1467C1.02535 24.5592 1.14024 24.964 1.35934 25.3136C1.57843 25.6632 1.89264 25.943 2.26513 26.1204C2.64428 26.3027 3.06747 26.3733 3.48528 26.3241C3.90309 26.2749 4.29829 26.1079 4.62474 25.8425C4.81838 25.6714 5.07047 25.5814 5.32872 25.5911C5.77123 25.5911 5.95728 25.747 6.35453 26.1329C6.64331 26.4678 7.00088 26.7364 7.40286 26.9205C7.80485 27.1047 8.24181 27.2 8.68396 27.2C9.12612 27.2 9.56308 27.1047 9.96507 26.9205C10.3671 26.7364 10.7246 26.4678 11.0134 26.1329C11.4157 25.747 11.5954 25.5911 12.0367 25.5911C12.4779 25.5911 12.6577 25.747 13.0587 26.1329C13.3472 26.467 13.7042 26.7351 14.1055 26.9188C14.5068 27.1025 14.943 27.1976 15.3844 27.1976C15.8258 27.1976 16.262 27.1025 16.6633 26.9188C17.0646 26.7351 17.4216 26.467 17.7101 26.1329C18.1123 25.747 18.2921 25.5911 18.7334 25.5911C18.9863 25.5809 19.2336 25.6677 19.4248 25.8337C19.7524 26.0988 20.1487 26.2653 20.5673 26.3138C20.986 26.3623 21.4098 26.2909 21.7894 26.1078C22.1609 25.9306 22.4742 25.6511 22.6926 25.3023C22.911 24.9534 23.0255 24.5495 23.0226 24.1379V2.19995C23.022 1.61756 22.7907 1.05914 22.3793 0.646858C21.968 0.234574 21.4101 0.00199411 20.8277 0Z" fill="#36AEB4"/>
<path d="M18.4708 6.91692H9.04245C8.79239 6.91692 8.55258 6.81759 8.37576 6.64077C8.19894 6.46396 8.09961 6.22414 8.09961 5.97409C8.09961 5.72403 8.19894 5.48422 8.37576 5.3074C8.55258 5.13058 8.79239 5.03125 9.04245 5.03125H18.4708C18.7209 5.03125 18.9607 5.13058 19.1375 5.3074C19.3143 5.48422 19.4137 5.72403 19.4137 5.97409C19.4137 6.22414 19.3143 6.46396 19.1375 6.64077C18.9607 6.81759 18.7209 6.91692 18.4708 6.91692Z" fill="#D0FDFF"/>
<path d="M18.4706 13.2021H9.0422C8.79215 13.2021 8.55233 13.1027 8.37552 12.9259C8.1987 12.7491 8.09937 12.5093 8.09937 12.2592C8.09937 12.0092 8.1987 11.7694 8.37552 11.5926C8.55233 11.4157 8.79215 11.3164 9.0422 11.3164H18.4706C18.7206 11.3164 18.9605 11.4157 19.1373 11.5926C19.3141 11.7694 19.4134 12.0092 19.4134 12.2592C19.4134 12.5093 19.3141 12.7491 19.1373 12.9259C18.9605 13.1027 18.7206 13.2021 18.4706 13.2021Z" fill="#D0FDFF"/>
<path d="M18.4706 19.4872H9.0422C8.79215 19.4872 8.55233 19.3879 8.37552 19.2111C8.1987 19.0343 8.09937 18.7945 8.09937 18.5444C8.09937 18.2943 8.1987 18.0545 8.37552 17.8777C8.55233 17.7009 8.79215 17.6016 9.0422 17.6016H18.4706C18.7206 17.6016 18.9605 17.7009 19.1373 17.8777C19.3141 18.0545 19.4134 18.2943 19.4134 18.5444C19.4134 18.7945 19.3141 19.0343 19.1373 19.2111C18.9605 19.3879 18.7206 19.4872 18.4706 19.4872Z" fill="#D0FDFF"/>
<path d="M5.89969 13.5142C6.59398 13.5142 7.15681 12.9514 7.15681 12.2571C7.15681 11.5628 6.59398 11 5.89969 11C5.20541 11 4.64258 11.5628 4.64258 12.2571C4.64258 12.9514 5.20541 13.5142 5.89969 13.5142Z" fill="#F5E66C"/>
<path d="M5.89969 7.22908C6.59398 7.22908 7.15681 6.66625 7.15681 5.97196C7.15681 5.27767 6.59398 4.71484 5.89969 4.71484C5.20541 4.71484 4.64258 5.27767 4.64258 5.97196C4.64258 6.66625 5.20541 7.22908 5.89969 7.22908Z" fill="#F5E66C"/>
<path d="M5.89969 19.7994C6.59398 19.7994 7.15681 19.2366 7.15681 18.5423C7.15681 17.848 6.59398 17.2852 5.89969 17.2852C5.20541 17.2852 4.64258 17.848 4.64258 18.5423C4.64258 19.2366 5.20541 19.7994 5.89969 19.7994Z" fill="#F5E66C"/>
</svg>
