<svg width="32" height="32" viewBox="0 0 32 32" fill="none" xmlns="http://www.w3.org/2000/svg">
<path d="M24.5998 2.39844H7.00017C6.41691 2.3991 5.85773 2.6311 5.44531 3.04352C5.03288 3.45595 4.80089 4.01513 4.80022 4.59839V26.5451C4.79744 26.9577 4.91234 27.3625 5.13143 27.712C5.35052 28.0616 5.66473 28.3415 6.03722 28.5188C6.41638 28.7011 6.83956 28.7718 7.25737 28.7226C7.67518 28.6734 8.07038 28.5063 8.39683 28.241C8.59047 28.0698 8.84257 27.9798 9.10082 27.9896C9.54332 27.9896 9.72937 28.1454 10.1266 28.5314C10.4154 28.8662 10.773 29.1348 11.175 29.319C11.5769 29.5031 12.0139 29.5984 12.4561 29.5984C12.8982 29.5984 13.3352 29.5031 13.7372 29.319C14.1391 29.1348 14.4967 28.8662 14.7855 28.5314C15.1878 28.1454 15.3675 27.9896 15.8088 27.9896C16.25 27.9896 16.4298 28.1454 16.8308 28.5314C17.1192 28.8655 17.4763 29.1335 17.8776 29.3172C18.2789 29.501 18.7151 29.5961 19.1565 29.5961C19.5979 29.5961 20.0341 29.501 20.4354 29.3172C20.8367 29.1335 21.1937 28.8655 21.4822 28.5314C21.8844 28.1454 22.0642 27.9896 22.5054 27.9896C22.7584 27.9793 23.0057 28.0661 23.1969 28.2322C23.5245 28.4972 23.9208 28.6637 24.3394 28.7122C24.7581 28.7608 25.1819 28.6893 25.5615 28.5062C25.933 28.329 26.2463 28.0496 26.4647 27.7007C26.6831 27.3518 26.7976 26.9479 26.7947 26.5363V4.59839C26.7941 4.016 26.5628 3.45758 26.1514 3.0453C25.7401 2.63301 25.1822 2.40043 24.5998 2.39844Z" fill="#0A6267"/>
<path d="M25.6278 2.39844H8.02813C7.44487 2.3991 6.88569 2.6311 6.47326 3.04352C6.06083 3.45595 5.82884 4.01513 5.82817 4.59839V26.5451C5.8254 26.9577 5.94029 27.3625 6.15938 27.712C6.37848 28.0616 6.69269 28.3415 7.06518 28.5188C7.44433 28.7011 7.86752 28.7718 8.28533 28.7226C8.70314 28.6734 9.09834 28.5063 9.42478 28.241C9.61843 28.0698 9.87052 27.9798 10.1288 27.9896C10.5713 27.9896 10.7573 28.1454 11.1546 28.5314C11.4434 28.8662 11.8009 29.1348 12.2029 29.319C12.6049 29.5031 13.0419 29.5984 13.484 29.5984C13.9262 29.5984 14.3631 29.5031 14.7651 29.319C15.1671 29.1348 15.5247 28.8662 15.8134 28.5314C16.2157 28.1454 16.3955 27.9896 16.8367 27.9896C17.278 27.9896 17.4578 28.1454 17.8588 28.5314C18.1472 28.8655 18.5042 29.1335 18.9055 29.3172C19.3069 29.501 19.7431 29.5961 20.1844 29.5961C20.6258 29.5961 21.062 29.501 21.4633 29.3172C21.8647 29.1335 22.2217 28.8655 22.5101 28.5314C22.9124 28.1454 23.0922 27.9896 23.5334 27.9896C23.7864 27.9793 24.0337 28.0661 24.2248 28.2322C24.5525 28.4972 24.9487 28.6637 25.3674 28.7122C25.786 28.7608 26.2098 28.6893 26.5895 28.5062C26.9609 28.329 27.2742 28.0496 27.4926 27.7007C27.7111 27.3518 27.8255 26.9479 27.8227 26.5363V4.59839C27.822 4.016 27.5907 3.45758 27.1794 3.0453C26.768 2.63301 26.2101 2.40043 25.6278 2.39844Z" fill="#36AEB4"/>
<path d="M23.2709 9.31536H13.8425C13.5924 9.31536 13.3526 9.21603 13.1758 9.03921C12.999 8.8624 12.8997 8.62258 12.8997 8.37252C12.8997 8.12247 12.999 7.88265 13.1758 7.70584C13.3526 7.52902 13.5924 7.42969 13.8425 7.42969H23.2709C23.5209 7.42969 23.7607 7.52902 23.9376 7.70584C24.1144 7.88265 24.2137 8.12247 24.2137 8.37252C24.2137 8.62258 24.1144 8.8624 23.9376 9.03921C23.7607 9.21603 23.5209 9.31536 23.2709 9.31536Z" fill="#D0FDFF"/>
<path d="M23.2706 15.6005H13.8423C13.5922 15.6005 13.3524 15.5012 13.1756 15.3244C12.9987 15.1476 12.8994 14.9077 12.8994 14.6577C12.8994 14.4076 12.9987 14.1678 13.1756 13.991C13.3524 13.8142 13.5922 13.7148 13.8423 13.7148H23.2706C23.5207 13.7148 23.7605 13.8142 23.9373 13.991C24.1141 14.1678 24.2135 14.4076 24.2135 14.6577C24.2135 14.9077 24.1141 15.1476 23.9373 15.3244C23.7605 15.5012 23.5207 15.6005 23.2706 15.6005Z" fill="#D0FDFF"/>
<path d="M23.2706 21.8857H13.8423C13.5922 21.8857 13.3524 21.7863 13.1756 21.6095C12.9987 21.4327 12.8994 21.1929 12.8994 20.9428C12.8994 20.6928 12.9987 20.453 13.1756 20.2762C13.3524 20.0993 13.5922 20 13.8423 20H23.2706C23.5207 20 23.7605 20.0993 23.9373 20.2762C24.1141 20.453 24.2135 20.6928 24.2135 20.9428C24.2135 21.1929 24.1141 21.4327 23.9373 21.6095C23.7605 21.7863 23.5207 21.8857 23.2706 21.8857Z" fill="#D0FDFF"/>
<path d="M10.6997 15.9127C11.394 15.9127 11.9569 15.3498 11.9569 14.6556C11.9569 13.9613 11.394 13.3984 10.6997 13.3984C10.0055 13.3984 9.44263 13.9613 9.44263 14.6556C9.44263 15.3498 10.0055 15.9127 10.6997 15.9127Z" fill="#F5E66C"/>
<path d="M10.6997 9.62751C11.394 9.62751 11.9569 9.06468 11.9569 8.3704C11.9569 7.67611 11.394 7.11328 10.6997 7.11328C10.0055 7.11328 9.44263 7.67611 9.44263 8.3704C9.44263 9.06468 10.0055 9.62751 10.6997 9.62751Z" fill="#F5E66C"/>
<path d="M10.6997 22.1978C11.394 22.1978 11.9569 21.635 11.9569 20.9407C11.9569 20.2464 11.394 19.6836 10.6997 19.6836C10.0055 19.6836 9.44263 20.2464 9.44263 20.9407C9.44263 21.635 10.0055 22.1978 10.6997 22.1978Z" fill="#F5E66C"/>
</svg>
