<svg width="24" height="24" viewBox="0 0 24 24" fill="none" xmlns="http://www.w3.org/2000/svg">
<path d="M21.4346 6.31475L17.6701 2.56468C17.5642 2.45915 17.4205 2.3999 17.2708 2.3999H8.61179C7.67765 2.3999 6.91767 3.15691 6.91767 4.0874V11.5063C4.38003 11.7871 2.40002 13.9361 2.40002 16.5374C2.40002 19.3289 4.67997 21.5999 7.48238 21.5999H19.9059C20.84 21.5999 21.6 20.8429 21.6 19.9124V6.71252C21.6 6.5633 21.5405 6.42028 21.4346 6.31475ZM17.8353 4.32039L19.672 6.1499H17.8353V4.32039ZM3.52944 16.5374C3.52944 14.3663 5.30273 12.5999 7.48238 12.5999C9.66203 12.5999 11.4353 14.3663 11.4353 16.5374C11.4353 18.7085 9.66203 20.4749 7.48238 20.4749C5.30273 20.4749 3.52944 18.7085 3.52944 16.5374ZM19.9059 20.4749H10.6729C11.688 19.6572 12.3817 18.4589 12.5332 17.0999H18.4C18.7119 17.0999 18.9647 16.8481 18.9647 16.5374C18.9647 16.2268 18.7119 15.9749 18.4 15.9749H12.5332C12.4411 15.1492 12.149 14.3827 11.7062 13.7249H18.4C18.7119 13.7249 18.9647 13.4731 18.9647 13.1624C18.9647 12.8518 18.7119 12.5999 18.4 12.5999H10.6729C9.93802 12.0079 9.03487 11.6156 8.04708 11.5063V4.0874C8.04708 3.77724 8.30041 3.5249 8.61179 3.5249H16.7059V6.7124C16.7059 7.02305 16.9587 7.2749 17.2706 7.2749H20.4706V19.9124C20.4706 20.2226 20.2173 20.4749 19.9059 20.4749Z" fill="white"/>
<path d="M18.4 9.2249H10.1177C9.8058 9.2249 9.55297 9.47675 9.55297 9.7874C9.55297 10.0981 9.8058 10.3499 10.1177 10.3499H18.4C18.7119 10.3499 18.9647 10.0981 18.9647 9.7874C18.9647 9.47675 18.7119 9.2249 18.4 9.2249Z" fill="white"/>
<path d="M8.98826 17.0999C9.30013 17.0999 9.55297 16.8481 9.55297 16.5374C9.55297 16.2268 9.30013 15.9749 8.98826 15.9749H8.04708V14.2874C8.04708 13.9768 7.79425 13.7249 7.48238 13.7249C7.17051 13.7249 6.91767 13.9768 6.91767 14.2874V16.5374C6.91767 16.8481 7.17051 17.0999 7.48238 17.0999H8.98826Z" fill="white"/>
</svg>
