<svg width="20" height="20" viewBox="0 0 20 20" fill="none" xmlns="http://www.w3.org/2000/svg">
<rect x="7" y="5.5" width="6.5" height="7" fill="white"/>
<path d="M10.0016 2C8.27682 2.0017 6.62325 2.67673 5.40424 3.87678C4.18523 5.07683 3.50051 6.70372 3.50051 8.4C3.4799 10.4569 4.08885 12.4723 5.24824 14.1843C6.40763 15.8964 8.06384 17.2258 10.0016 18C11.9388 17.2253 13.5943 15.8956 14.7531 14.1837C15.9119 12.4717 16.5204 10.4565 16.4995 8.4C16.4995 6.70428 15.8152 5.07786 14.5969 3.87791C13.3786 2.67795 11.7259 2.00254 10.0016 2ZM10.0016 10.8C9.51896 10.8 9.04714 10.6592 8.64583 10.3955C8.24451 10.1318 7.93173 9.75698 7.74702 9.31844C7.56232 8.8799 7.51399 8.39734 7.60815 7.93178C7.70231 7.46623 7.93474 7.03859 8.27603 6.70294C8.61732 6.3673 9.05215 6.13872 9.52553 6.04612C9.99891 5.95351 10.4896 6.00104 10.9355 6.18269C11.3814 6.36434 11.7626 6.67195 12.0307 7.06663C12.2989 7.46131 12.442 7.92532 12.442 8.4C12.442 9.03652 12.1849 9.64697 11.7272 10.0971C11.2696 10.5471 10.6488 10.8 10.0016 10.8Z" fill="#F65C3D"/>
</svg>
