<svg viewBox="0 0 40 40" fill="none" xmlns="http://www.w3.org/2000/svg">
<path d="M20 32C28.8366 32 36 24.8366 36 16C36 7.16344 28.8366 0 20 0C11.1634 0 4 7.16344 4 16C4 24.8366 11.1634 32 20 32Z" fill="#FFD872"/>
<path d="M7.09843 25.1732L1.63387 34.6457L8.01182 34.3071L10.9095 40L15.9646 31.2362C12.3425 30.2992 9.23229 28.1181 7.09843 25.1732Z" fill="#FF2525"/>
<path d="M32.8622 25.126C30.7441 28.0787 27.6339 30.2677 24.0197 31.2205L29.0906 40L31.9882 34.3071L38.3661 34.6457L32.8622 25.126Z" fill="#FF2525"/>
<mask id="mask0_rank1" style="mask-type:alpha" maskUnits="userSpaceOnUse" x="6" y="2" width="28" height="28">
<path d="M20 30C27.732 30 34 23.732 34 16C34 8.26801 27.732 2 20 2C12.268 2 6 8.26801 6 16C6 23.732 12.268 30 20 30Z" fill="#F39200"/>
</mask>
<g mask="url(#mask0_rank1)">
<path d="M20 30C27.732 30 34 23.732 34 16C34 8.26801 27.732 2 20 2C12.268 2 6 8.26801 6 16C6 23.732 12.268 30 20 30Z" fill="#FFB800"/>
<path d="M20 29C27.1797 29 33 23.1797 33 16C33 8.8203 27.1797 3 20 3C12.8203 3 7 8.8203 7 16C7 23.1797 12.8203 29 20 29Z" fill="#F39200"/>
</g>
<path d="M20.0653 23.6V10.38L21.2053 11.56L17.4453 14.54H17.2853V11.84L20.1253 9.59998H22.3653V23.6H20.0653Z" fill="#BC7100"/>
<path d="M19.6295 22V8.78L20.9695 10.26L16.9295 13.44H16.7695V10.24L19.6895 8H22.3295V22H19.6295Z" fill="white"/>
</svg>
