<svg viewBox="0 0 40 40" fill="none" xmlns="http://www.w3.org/2000/svg">
<path d="M20 32C28.8366 32 36 24.8366 36 16C36 7.16344 28.8366 0 20 0C11.1634 0 4 7.16344 4 16C4 24.8366 11.1634 32 20 32Z" fill="#F7A95A"/>
<path d="M7.09843 25.1732L1.63386 34.6457L8.01181 34.3071L10.9094 40L15.9646 31.2362C12.3425 30.2992 9.23228 28.1181 7.09843 25.1732Z" fill="#3186FD"/>
<path d="M32.8622 25.126C30.7441 28.0787 27.6339 30.2677 24.0197 31.2205L29.0906 40L31.9882 34.3071L38.3661 34.6457L32.8622 25.126Z" fill="#3186FD"/>
<mask id="mask0_rank3" style="mask-type:alpha" maskUnits="userSpaceOnUse" x="6" y="2" width="28" height="28">
<path d="M20 30C27.732 30 34 23.732 34 16C34 8.26801 27.732 2 20 2C12.268 2 6 8.26801 6 16C6 23.732 12.268 30 20 30Z" fill="#F39200"/>
</mask>
<g mask="url(#mask0_rank3)">
<path d="M20 30C27.732 30 34 23.732 34 16C34 8.26801 27.732 2 20 2C12.268 2 6 8.26801 6 16C6 23.732 12.268 30 20 30Z" fill="#AA5C20"/>
<path d="M20 29C27.1797 29 33 23.1797 33 16C33 8.8203 27.1797 3 20 3C12.8203 3 7 8.8203 7 16C7 23.1797 12.8203 29 20 29Z" fill="#C6732C"/>
</g>
<path d="M20.4834 23.92C19.4701 23.92 18.5834 23.72 17.8234 23.32C17.0634 22.92 16.4568 22.3534 16.0034 21.62C15.5634 20.8867 15.3034 20.0134 15.2234 19L17.7034 18.5L17.9234 18.54C17.9234 19.06 18.0168 19.5334 18.2034 19.96C18.4034 20.3867 18.6901 20.7267 19.0634 20.98C19.4501 21.2334 19.9234 21.36 20.4834 21.36C20.9101 21.36 21.2834 21.28 21.6034 21.12C21.9368 20.96 22.1968 20.7334 22.3834 20.44C22.5834 20.1467 22.6834 19.8 22.6834 19.4C22.6834 18.8 22.4701 18.34 22.0434 18.02C21.6168 17.6867 21.0634 17.52 20.3834 17.52H19.3234V15.2H20.4234C20.9701 15.2 21.4168 15.0534 21.7634 14.76C22.1234 14.4667 22.3034 14.06 22.3034 13.54C22.3034 13.1934 22.2168 12.8867 22.0434 12.62C21.8834 12.3534 21.6568 12.1467 21.3634 12C21.0834 11.8534 20.7568 11.78 20.3834 11.78C19.9701 11.78 19.5968 11.88 19.2634 12.08C18.9434 12.2667 18.6768 12.54 18.4634 12.9C18.2634 13.2467 18.1301 13.6534 18.0634 14.12L17.8434 14.16L15.4834 13.68C15.5501 12.8934 15.7901 12.1667 16.2034 11.5C16.6168 10.8334 17.1768 10.3 17.8834 9.90003C18.6034 9.4867 19.4568 9.28003 20.4434 9.28003C21.2968 9.28003 22.0634 9.4467 22.7434 9.78003C23.4368 10.1134 23.9834 10.5734 24.3834 11.16C24.7968 11.7467 25.0034 12.4267 25.0034 13.2C25.0034 14.0534 24.7368 14.78 24.2034 15.38C23.6834 15.98 22.9968 16.3334 22.1434 16.44V16.02C22.8101 16.02 23.3834 16.1867 23.8634 16.52C24.3434 16.84 24.7168 17.2667 24.9834 17.8C25.2501 18.3334 25.3834 18.92 25.3834 19.56C25.3834 20.3867 25.1768 21.1334 24.7634 21.8C24.3501 22.4534 23.7768 22.9734 23.0434 23.36C22.3101 23.7334 21.4568 23.92 20.4834 23.92Z" fill="#AA5C20"/>
<path d="M20.1834 22.3201C19.1701 22.3201 18.2834 22.1201 17.5234 21.7201C16.7634 21.3201 16.1568 20.7534 15.7034 20.0201C15.2634 19.2867 15.0034 18.4134 14.9234 17.4001L17.4034 16.9001L17.6234 16.9401C17.6234 17.4601 17.7168 17.9334 17.9034 18.3601C18.1034 18.7867 18.3901 19.1267 18.7634 19.3801C19.1501 19.6334 19.6234 19.7601 20.1834 19.7601C20.6101 19.7601 20.9834 19.6801 21.3034 19.5201C21.6368 19.3601 21.8968 19.1334 22.0834 18.8401C22.2834 18.5467 22.3834 18.2001 22.3834 17.8001C22.3834 17.2001 22.1701 16.7401 21.7434 16.4201C21.3168 16.0867 20.7634 15.9201 20.0834 15.9201H19.0234V13.6001H20.1234C20.6701 13.6001 21.1168 13.4534 21.4634 13.1601C21.8234 12.8667 22.0034 12.4601 22.0034 11.9401C22.0034 11.5934 21.9168 11.2867 21.7434 11.0201C21.5834 10.7534 21.3568 10.5467 21.0634 10.4001C20.7834 10.2534 20.4568 10.1801 20.0834 10.1801C19.6701 10.1801 19.2968 10.2801 18.9634 10.4801C18.6434 10.6667 18.3768 10.9401 18.1634 11.3001C17.9634 11.6467 17.8301 12.0534 17.7634 12.5201L17.5434 12.5601L15.1834 12.0801C15.2501 11.2934 15.4901 10.5667 15.9034 9.90005C16.3168 9.23339 16.8768 8.70005 17.5834 8.30005C18.3034 7.88672 19.1568 7.68005 20.1434 7.68005C20.9968 7.68005 21.7634 7.84672 22.4434 8.18005C23.1368 8.51339 23.6834 8.97339 24.0834 9.56005C24.4968 10.1467 24.7034 10.8267 24.7034 11.6001C24.7034 12.4534 24.4368 13.1801 23.9034 13.7801C23.3834 14.3801 22.6968 14.7334 21.8434 14.8401V14.4201C22.5101 14.4201 23.0834 14.5867 23.5634 14.9201C24.0434 15.2401 24.4168 15.6667 24.6834 16.2001C24.9501 16.7334 25.0834 17.3201 25.0834 17.9601C25.0834 18.7867 24.8768 19.5334 24.4634 20.2001C24.0501 20.8534 23.4768 21.3734 22.7434 21.7601C22.0101 22.1334 21.1568 22.3201 20.1834 22.3201Z" fill="white"/>
</svg>
