<svg viewBox="0 0 40 40" fill="none" xmlns="http://www.w3.org/2000/svg">
<path d="M20 32C28.8366 32 36 24.8366 36 16C36 7.16344 28.8366 0 20 0C11.1634 0 4 7.16344 4 16C4 24.8366 11.1634 32 20 32Z" fill="#D5D5D5"/>
<path d="M7.09842 25.1732L1.63386 34.6457L8.01181 34.3071L10.9094 40L15.9646 31.2362C12.3425 30.2992 9.23228 28.1181 7.09842 25.1732Z" fill="#656262"/>
<path d="M32.8622 25.126C30.7441 28.0787 27.6339 30.2677 24.0197 31.2205L29.0906 40L31.9882 34.3071L38.3661 34.6457L32.8622 25.126Z" fill="#656262"/>
<mask id="mask0_rank2" style="mask-type:alpha" maskUnits="userSpaceOnUse" x="6" y="2" width="28" height="28">
<path d="M20 30C27.732 30 34 23.732 34 16C34 8.26801 27.732 2 20 2C12.268 2 6 8.26801 6 16C6 23.732 12.268 30 20 30Z" fill="#F39200"/>
</mask>
<g mask="url(#mask0_rank2)">
<path d="M20 30C27.732 30 34 23.732 34 16C34 8.26801 27.732 2 20 2C12.268 2 6 8.26801 6 16C6 23.732 12.268 30 20 30Z" fill="#838383"/>
<path d="M20 29C27.1797 29 33 23.1797 33 16C33 8.8203 27.1797 3 20 3C12.8203 3 7 8.8203 7 16C7 23.1797 12.8203 29 20 29Z" fill="#9E9E9E"/>
</g>
<path d="M15.6969 23.6V21.24L20.6369 16.8C21.0235 16.4534 21.3302 16.12 21.5569 15.8C21.7969 15.4667 21.9702 15.1467 22.0769 14.84C22.1969 14.52 22.2569 14.2067 22.2569 13.9C22.2569 13.5 22.1702 13.1467 21.9969 12.84C21.8235 12.5334 21.5835 12.2934 21.2769 12.12C20.9702 11.9334 20.6102 11.84 20.1969 11.84C19.7302 11.84 19.3302 11.96 18.9969 12.2C18.6635 12.4267 18.4102 12.76 18.2369 13.2C18.0635 13.6267 17.9769 14.14 17.9769 14.74L17.7569 14.78L15.3969 14.3C15.3969 13.3267 15.6102 12.4667 16.0369 11.72C16.4769 10.96 17.0635 10.3667 17.7969 9.94003C18.5435 9.50003 19.3769 9.28003 20.2969 9.28003C21.2035 9.28003 22.0035 9.4867 22.6969 9.90003C23.4035 10.3134 23.9569 10.8734 24.3569 11.58C24.7569 12.2867 24.9569 13.0867 24.9569 13.98C24.9569 14.4867 24.8702 14.9934 24.6969 15.5C24.5235 16.0067 24.2435 16.5267 23.8569 17.06C23.4702 17.5934 22.9502 18.1534 22.2969 18.74L17.8369 22.82L17.2769 21.04H25.3969V23.6H15.6969Z" fill="#6C6C6C"/>
<path d="M15.3969 22.0001V19.6401L20.3369 15.2001C20.7235 14.8534 21.0302 14.5201 21.2569 14.2001C21.4969 13.8667 21.6702 13.5467 21.7769 13.2401C21.8969 12.9201 21.9569 12.6067 21.9569 12.3001C21.9569 11.9001 21.8702 11.5467 21.6969 11.2401C21.5235 10.9334 21.2835 10.6934 20.9769 10.5201C20.6702 10.3334 20.3102 10.2401 19.8969 10.2401C19.4302 10.2401 19.0302 10.3601 18.6969 10.6001C18.3635 10.8267 18.1102 11.1601 17.9369 11.6001C17.7635 12.0267 17.6769 12.5401 17.6769 13.1401L17.4569 13.1801L15.0969 12.7001C15.0969 11.7267 15.3102 10.8667 15.7369 10.1201C16.1769 9.36005 16.7635 8.76672 17.4969 8.34005C18.2435 7.90005 19.0769 7.68005 19.9969 7.68005C20.9035 7.68005 21.7035 7.88672 22.3969 8.30005C23.1035 8.71339 23.6569 9.27339 24.0569 9.98005C24.4569 10.6867 24.6569 11.4867 24.6569 12.3801C24.6569 12.8867 24.5702 13.3934 24.3969 13.9001C24.2235 14.4067 23.9435 14.9267 23.5569 15.4601C23.1702 15.9934 22.6502 16.5534 21.9969 17.1401L17.5369 21.2201L16.9769 19.4401H25.0969V22.0001H15.3969Z" fill="white"/>
</svg>
