<svg width="20" height="20" viewBox="0 0 20 20" fill="none" xmlns="http://www.w3.org/2000/svg">
<path d="M17.5385 8.54837C17.7934 8.54837 18 8.33172 18 8.06451V5.48386C18 5.21662 17.7933 5 17.5385 5H7.38462V7.41936C7.38462 7.6866 7.17797 7.90322 6.92309 7.90322C6.66822 7.90322 6.46156 7.68656 6.46156 7.41936V5H2.46156C2.20666 5 2 5.21662 2 5.48386V8.06451C2 8.33175 2.20666 8.54837 2.46153 8.54837C3.225 8.54837 3.84616 9.19955 3.84616 10C3.84616 10.8004 3.22503 11.4516 2.46153 11.4516C2.20666 11.4516 2 11.6683 2 11.9355V14.5161C2 14.7834 2.20666 15 2.46153 15H6.46153V12.5806C6.46153 12.3134 6.66819 12.0968 6.92306 12.0968C7.17794 12.0968 7.38459 12.3134 7.38459 12.5806V15H17.5384C17.7933 15 18 14.7833 18 14.5161V11.9355C18 11.6683 17.7933 11.4516 17.5384 11.4516C16.775 11.4516 16.1538 10.8004 16.1538 10C16.1538 9.19955 16.775 8.54837 17.5385 8.54837ZM7.38462 10.6452C7.38462 10.9124 7.17797 11.129 6.92309 11.129C6.66822 11.129 6.46156 10.9124 6.46156 10.6452V9.35481C6.46156 9.08757 6.66822 8.87095 6.92309 8.87095C7.17797 8.87095 7.38462 9.08761 7.38462 9.35481V10.6452Z" fill="#86D8DA"/>
</svg>
