<svg width="230" height="322" viewBox="0 0 230 322" fill="none" xmlns="http://www.w3.org/2000/svg">
<path opacity="0.2" d="M269.324 135.052L88.4489 318.037C88.0168 318.477 87.56 318.892 87.0807 319.279L85.6281 320.234C84.0785 321.162 82.3373 321.713 80.5427 321.845C78.7481 321.976 76.9497 321.684 75.2903 320.992C73.7076 320.409 72.2618 319.505 71.0423 318.335C69.8227 317.165 68.8554 315.755 68.2001 314.191C67.5448 312.626 67.2154 310.942 67.2324 309.241C67.2495 307.541 67.6125 305.86 68.299 304.304L111.716 199.225L123.23 171.399C124.128 169.268 124.561 166.97 124.502 164.659C124.442 162.349 123.89 160.081 122.883 158.008C121.877 155.935 120.439 154.107 118.668 152.647C116.896 151.187 114.832 150.129 112.616 149.544L11.9401 123.861C9.70154 123.266 7.61867 122.192 5.83372 120.71C4.04877 119.228 2.60381 117.374 1.59751 115.275C0.591226 113.175 0.0473095 110.879 0.00293366 108.544C-0.0414422 106.209 0.414753 103.889 1.34037 101.744L105.393 -110.387C108.449 -116.534 113.48 -121.463 119.664 -124.366C125.847 -127.269 132.816 -127.974 139.43 -126.367L245.88 -99.2097C249.198 -98.3254 252.265 -96.6784 254.841 -94.3974C257.416 -92.1164 259.431 -89.2634 260.726 -86.0616C262.022 -82.8598 262.564 -79.396 262.309 -75.9413C262.055 -72.4866 261.011 -69.1346 259.259 -66.1477L182.965 65.8154C181.671 68.0209 180.9 70.4967 180.714 73.0482C180.528 75.5997 180.932 78.1574 181.893 80.5203C182.854 82.8831 184.346 84.9867 186.253 86.6659C188.16 88.345 190.429 89.5538 192.882 90.1974L261.973 107.824C264.734 108.522 267.259 109.946 269.29 111.953C271.321 113.959 272.785 116.475 273.532 119.244C274.279 122.012 274.284 124.934 273.544 127.711C272.805 130.489 271.349 133.022 269.324 135.052Z" fill="url(#paint0_linear_1488_38426)"/>
<defs>
<linearGradient id="paint0_linear_1488_38426" x1="-64.4137" y1="-57.368" x2="304.952" y2="275.411" gradientUnits="userSpaceOnUse">
<stop stop-color="white" stop-opacity="0.2"/>
<stop offset="0.235577" stop-color="white" stop-opacity="0"/>
<stop offset="0.471154" stop-color="white" stop-opacity="0.4"/>
<stop offset="0.668269" stop-color="white" stop-opacity="0"/>
<stop offset="0.79916" stop-color="white" stop-opacity="0.7"/>
<stop offset="1" stop-color="white" stop-opacity="0"/>
</linearGradient>
</defs>
</svg>
