<svg width="236" height="307" viewBox="0 0 236 307" fill="none" xmlns="http://www.w3.org/2000/svg">
<path d="M245.751 -114.239L246.357 -114.068C249.367 -113.171 252.149 -111.625 254.51 -109.535C257.027 -107.306 258.996 -104.517 260.263 -101.387C261.529 -98.256 262.059 -94.8683 261.81 -91.4898C261.562 -88.1116 260.541 -84.8339 258.828 -81.9132L258.827 -81.9106L182.534 50.0501C181.201 52.3216 180.407 54.8714 180.215 57.4992C180.024 60.1271 180.439 62.7621 181.429 65.1964C182.419 67.6306 183.957 69.7984 185.922 71.5289C187.887 73.2595 190.227 74.5055 192.755 75.1688L261.851 92.7961C264.525 93.4722 266.971 94.8526 268.938 96.7962C270.906 98.7401 272.325 101.178 273.05 103.862C273.774 106.545 273.778 109.378 273.061 112.071C272.344 114.763 270.932 117.219 268.97 119.186L268.968 119.188L88.0936 302.173L88.0921 302.175C87.6786 302.596 87.2411 302.992 86.783 303.363L85.3716 304.293C83.8888 305.181 82.2223 305.708 80.5059 305.834C78.7896 305.959 77.0693 305.68 75.4823 305.018L75.4734 305.013L75.4632 305.01L75.1802 304.902C73.7728 304.343 72.4852 303.515 71.3883 302.463C70.2183 301.34 69.2898 299.986 68.6609 298.485C68.0319 296.984 67.7159 295.367 67.7323 293.734C67.7476 292.204 68.0555 290.69 68.6369 289.276L68.7562 288.994L68.761 288.983L112.178 183.903L123.692 156.077C124.616 153.882 125.063 151.514 125.001 149.134C124.94 146.752 124.371 144.414 123.333 142.277C122.295 140.14 120.813 138.255 118.986 136.749C117.159 135.243 115.03 134.151 112.744 133.549L12.0681 107.865C9.89987 107.29 7.88186 106.248 6.15268 104.813C4.42362 103.377 3.0241 101.581 2.04892 99.5462C1.07367 97.5113 0.54633 95.2859 0.50331 93.0222C0.460465 90.7667 0.898495 88.5261 1.78927 86.4526L105.84 -125.677L105.841 -125.676C108.847 -131.723 113.795 -136.571 119.876 -139.425C125.767 -142.191 132.382 -142.928 138.702 -141.535L139.312 -141.393L245.751 -114.239Z" stroke="url(#paint0_linear_1488_38427)"/>
<defs>
<linearGradient id="paint0_linear_1488_38427" x1="-64.4137" y1="-72.8802" x2="304.952" y2="259.899" gradientUnits="userSpaceOnUse">
<stop stop-color="white" stop-opacity="0.2"/>
<stop offset="0.235577" stop-color="white" stop-opacity="0"/>
<stop offset="0.471154" stop-color="white" stop-opacity="0.4"/>
<stop offset="0.668269" stop-color="white" stop-opacity="0"/>
<stop offset="0.79916" stop-color="white" stop-opacity="0.7"/>
<stop offset="1" stop-color="white" stop-opacity="0"/>
</linearGradient>
</defs>
</svg>
