<svg width="80" height="80" viewBox="0 0 80 80" fill="none" xmlns="http://www.w3.org/2000/svg">
<path d="M40 80C62.0914 80 80 62.0925 80 40C80 17.9074 62.0914 0 40 0C17.9086 0 0 17.9074 0 39.9988C0 62.0902 17.9086 80 40 80Z" fill="#D9F4F3"/>
<path d="M39.9998 72.4023C57.8957 72.4023 72.4035 57.8957 72.4035 39.9987C72.4035 22.1016 57.8957 7.59619 39.9998 7.59619C22.1039 7.59619 7.59619 22.1027 7.59619 39.9998C7.59619 57.8969 22.1051 72.4023 39.9998 72.4023Z" fill="#1AB6BE"/>
<path d="M56.0751 28.286C55.0319 27.1973 53.3379 27.198 52.2934 28.286L35.2731 46.0268L27.7084 38.1422C26.6638 37.0534 24.9706 37.0534 23.926 38.1422C22.8814 39.2309 22.8814 40.9957 23.926 42.0845L33.3816 51.9399C33.9035 52.484 34.5879 52.7567 35.2724 52.7567C35.9569 52.7567 36.642 52.4847 37.1639 51.9399L56.0751 32.2283C57.1196 31.1403 57.1196 29.3747 56.0751 28.286Z" fill="white"/>
</svg>
