<svg width="224" height="224" viewBox="0 0 224 224" fill="none" xmlns="http://www.w3.org/2000/svg">
<path d="M114.59 186.62C72.4622 187.364 42.7259 179.494 33.123 175.47C55.1163 149.137 109.015 147.588 143.399 153.163C170.906 157.625 188.108 170.101 190.484 175.47C182.739 178.876 156.719 185.876 114.59 186.62Z" fill="url(#paint0_linear_318_13715)" fill-opacity="0.25"/>
<path d="M112.112 192.051C152.999 192.051 186.145 158.905 186.145 118.017C186.145 77.1298 152.999 43.9839 112.112 43.9839C71.2241 43.9839 38.0781 77.1298 38.0781 118.017C38.0781 158.905 71.2241 192.051 112.112 192.051Z" fill="url(#paint1_linear_318_13715)" fill-opacity="0.25"/>
<g clip-path="url(#clip0_318_13715)">
<path d="M81.986 157.268L74.1605 164.813C72.9601 165.97 73.7794 168 75.447 168H148.554C150.225 168 151.043 165.961 149.834 164.807L141.928 157.257C141.306 156.662 140.478 156.331 139.617 156.331H84.3085C83.4424 156.331 82.6097 156.667 81.986 157.268Z" fill="#F5E66C"/>
<path d="M121.593 156.337L121.584 156.331H102.443C104.43 158.553 106.247 160.503 107.752 162.081L113.676 168H133.256L121.593 156.337Z" fill="#EDD948"/>
<path d="M112.014 80C93.0973 80 77.7617 95.3355 77.7617 114.252C77.7617 128.999 98.5756 152.455 107.752 162.081C110.073 164.516 113.955 164.516 116.276 162.081C125.454 152.455 146.269 128.999 146.269 114.252C146.268 95.3355 130.933 80 112.014 80ZM112.014 127.281C104.818 127.281 98.9845 121.448 98.9845 114.252C98.9845 107.056 104.818 101.223 112.014 101.223C119.21 101.223 125.043 107.056 125.043 114.252C125.043 121.448 119.21 127.281 112.014 127.281Z" fill="#36AEB4"/>
<path d="M112.016 93.5449C100.58 93.5449 91.3086 102.816 91.3086 114.252C91.3086 125.688 100.58 134.959 112.016 134.959C123.452 134.959 132.723 125.688 132.723 114.252C132.723 102.816 123.451 93.5449 112.016 93.5449ZM112.016 127.281C104.82 127.281 98.9862 121.448 98.9862 114.252C98.9862 107.056 104.82 101.223 112.016 101.223C119.211 101.223 125.045 107.056 125.045 114.252C125.045 121.448 119.211 127.281 112.016 127.281Z" fill="#1A8086"/>
</g>
<defs>
<linearGradient id="paint0_linear_318_13715" x1="111.803" y1="156.262" x2="111.803" y2="190.029" gradientUnits="userSpaceOnUse">
<stop stop-color="#18D4CF"/>
<stop offset="0.8003" stop-color="#18D4CF" stop-opacity="0"/>
</linearGradient>
<linearGradient id="paint1_linear_318_13715" x1="112.112" y1="-0.932383" x2="112.112" y2="177.182" gradientUnits="userSpaceOnUse">
<stop stop-color="#18D4CF"/>
<stop offset="0.8003" stop-color="#18D4CF" stop-opacity="0"/>
</linearGradient>
<clipPath id="clip0_318_13715">
<rect width="88" height="88" fill="white" transform="translate(68 80)"/>
</clipPath>
</defs>
</svg>
