<svg width="156" height="156" viewBox="0 0 156 156" fill="none" xmlns="http://www.w3.org/2000/svg">
<path d="M99.7462 107.163C99.7325 106.245 85.8081 95.6669 85.8081 95.6669L80.5629 103.013C80.5629 103.013 93.7847 115.222 94.6468 114.932C95.5088 114.642 97.6452 113.626 98.7092 111.978C99.7526 110.362 99.76 108.081 99.7462 107.163Z" fill="#FDC427"/>
<path opacity="0.6" d="M80.8957 103.063C82.0063 104.087 94.0755 115.184 94.8979 114.907C95.4111 114.734 96.3762 114.304 97.2976 113.636L82.4928 101.224L80.8957 103.063Z" fill="#D4AE43"/>
<path d="M90.1882 108.412L101.693 87.1316L109.298 91.9948L98.4391 112.501L90.1882 108.412Z" fill="#F5BC1C"/>
<path opacity="0.6" d="M95.3517 112.009L107.156 90.8961L109.298 91.9948C109.298 91.9948 99.0094 111.631 98.5049 112.387C98.0003 113.144 97.2436 113.649 97.2436 113.649L95.3517 112.009Z" fill="#D4AE43"/>
<path d="M100.674 87.7593L109.361 92.7036L113.578 84.8887C113.578 84.8887 116.48 84.7953 118.165 84.115C121.864 82.6209 123.729 80.1366 124.707 76.2686C125.76 72.1045 124.982 68.7856 122.127 65.5771C119.32 62.4238 116.179 61.0327 112.019 61.7467C108.011 62.4346 105.079 64.4007 103.926 68.3007C103.176 70.8391 104.538 75.0512 104.538 75.0512C104.538 75.0512 103.289 72.4128 101.987 71.6106C100.427 70.6495 99.1275 69.945 97.4173 70.5919C95.5602 71.2943 94.4662 72.5371 94.0569 75.0156C93.6476 77.4941 94.851 78.6377 97.495 80.3459C99.4934 81.6369 103.357 81.785 103.357 81.785L100.674 87.7593Z" fill="#F5F5F5"/>
<path opacity="0.2" d="M116.538 61.8714C117.278 63.014 118.339 64.7366 118.954 66.1137C119.022 66.2658 119.088 66.4129 119.152 66.5558C119.91 68.2455 120.407 69.3523 120.685 71.3032C120.693 71.3634 120.702 71.4226 120.71 71.4808C120.897 72.7871 121.015 73.6114 120.764 74.9546C120.334 77.2566 119.597 78.7056 117.742 80.1435C115.952 81.5308 112.187 81.8006 112.187 81.8006L106.934 91.3228L109.36 92.7037L113.578 84.8889C113.578 84.8889 116.48 84.7954 118.164 84.1151C121.864 82.621 123.729 80.1368 124.707 76.2687C125.76 72.1046 124.982 68.7857 122.126 65.5773C120.435 63.677 118.622 62.4167 116.538 61.8714Z" fill="#CACACA"/>
<path opacity="0.2" d="M109.065 76.2177C108.933 77.3632 107.672 78.699 107.952 78.9528C108.233 79.2065 109.657 78.1978 110.187 77.2326C110.681 76.3343 110.781 75.6134 110.502 74.627C110.269 73.7992 109.952 73.3128 109.25 72.8149C108.78 72.4812 107.967 72.1653 107.883 72.2588C107.798 72.3524 108.622 73.2547 108.863 73.9953C109.133 74.8241 109.164 75.3519 109.065 76.2177Z" fill="#CACACA"/>
<path opacity="0.6" d="M98.4512 80.834C97.8104 79.9382 96.7988 78.3245 96.7307 76.9831C96.6618 75.6261 96.6329 74.63 97.5099 73.5921C98.2469 72.7198 99.11 72.608 100.128 72.4761C100.453 72.4339 100.794 72.3897 101.152 72.3179C101.594 72.2294 102.191 72.1582 102.598 72.1153C102.399 71.9128 102.193 71.7388 101.986 71.6112C100.426 70.6501 99.1263 69.9456 97.4161 70.5924C95.5589 71.2949 94.465 72.5377 94.0557 75.0162C93.6464 77.4947 94.8498 78.6383 97.4938 80.3464C97.7802 80.5315 98.105 80.693 98.4512 80.834Z" fill="white"/>
<path opacity="0.6" d="M105.131 75.8258C105.131 75.8258 104.441 72.3234 104.844 70.1349C105.123 68.6216 105.317 67.7065 106.166 66.423C106.933 65.2629 107.75 64.7376 108.751 64.0937C109.079 63.8829 109.426 63.6593 109.798 63.3966C110.628 62.8108 111.772 62.1427 112.645 61.654C112.438 61.6795 112.229 61.7103 112.018 61.7466C108.01 62.4345 105.078 64.4007 103.925 68.3006C103.334 70.2988 104.053 73.3342 104.385 74.5356C104.785 75.288 105.131 75.8258 105.131 75.8258Z" fill="white"/>
<path d="M49.9969 110.355C49.9149 109.441 62.6617 97.4697 62.6617 97.4697L68.6436 104.23C68.6436 104.23 56.7656 117.75 55.878 117.551C54.9904 117.352 52.7598 116.564 51.5299 115.036C50.3239 113.537 50.0789 111.269 49.9969 110.355Z" fill="#FDC427"/>
<path opacity="0.6" d="M68.3175 104.314C67.3195 105.447 56.472 117.741 55.6253 117.551C55.0968 117.433 54.0922 117.106 53.1062 116.538L66.5374 102.651L68.3175 104.314Z" fill="#D4AE43"/>
<rect opacity="0.4" x="70.6289" y="6.44067" width="6.05414" height="30.2707" rx="3.02707" fill="#FDC427"/>
<rect opacity="0.4" x="31.8203" y="19.6812" width="6.05414" height="30.2707" rx="3.02707" transform="rotate(-32.6092 31.8203 19.6812)" fill="#FDC427"/>
<rect opacity="0.4" x="55.2422" y="24.6672" width="5.04512" height="14.1263" rx="2.52256" transform="rotate(-15.2186 55.2422 24.6672)" fill="#FDC427"/>
<rect opacity="0.4" x="29.2148" y="44.7727" width="5.04512" height="14.1263" rx="2.52256" transform="rotate(-56.9543 29.2148 44.7727)" fill="#FDC427"/>
<rect opacity="0.4" x="15.3555" y="57.0005" width="6.05415" height="22.4508" rx="3.02707" transform="rotate(-76.5005 15.3555 57.0005)" fill="#FDC427"/>
<rect opacity="0.4" width="6.05415" height="22.4508" rx="3.02707" transform="matrix(-0.233436 -0.972372 -0.972372 0.233437 132.209 57.0005)" fill="#FDC427"/>
<path d="M54.1064 103.306C55.5403 105.273 54.8072 110.936 55.4938 113.271C56.7551 117.559 56.4788 117.563 58.0164 121.721C59.7567 126.427 69.7463 128.541 69.7463 128.541H80.8456C80.8456 128.541 87.989 126.694 90.8097 122.982C93.2061 119.829 95.0866 116.962 95.7287 113.271C96.2332 110.37 94.4114 105.285 95.7287 103.306C100.954 95.4573 104.676 92.4967 106.576 83.2606C108.736 72.7574 107.166 65.0974 100.9 56.3954C93.7691 46.4918 85.2271 42.0381 73.0256 42.269C61.2613 42.4917 53.1862 46.7742 46.4126 56.3954C40.2621 65.1316 38.6895 72.8857 41.2414 83.2606C43.6202 92.932 48.238 95.2594 54.1064 103.306Z" fill="#FDC427"/>
<ellipse cx="61.0441" cy="71.2709" rx="9.08121" ry="9.08122" fill="#333333"/>
<ellipse cx="4.53996" cy="3.8205" rx="4.53996" ry="3.8205" transform="matrix(0.837275 -0.546783 0.523984 0.851728 53.2969 67.8972)" fill="white"/>
<ellipse cx="1.89055" cy="1.30029" rx="1.89055" ry="1.30029" transform="matrix(0.787974 -0.615709 0.592809 0.805343 60.7773 73.5981)" fill="white"/>
<ellipse cx="88.0363" cy="71.2704" rx="9.08121" ry="9.08122" fill="#333333"/>
<ellipse cx="4.53996" cy="3.8205" rx="4.53996" ry="3.8205" transform="matrix(0.837275 -0.546783 0.523984 0.851728 80.2871 67.8967)" fill="white"/>
<ellipse cx="1.89055" cy="1.30029" rx="1.89055" ry="1.30029" transform="matrix(0.787974 -0.615709 0.592809 0.805343 87.7695 73.5977)" fill="white"/>
<path d="M70.8552 88.5747C70.8552 88.5747 71.5773 86.9894 75.0249 86.9365C78.4726 86.8836 79.6062 88.6364 79.6062 88.6364" stroke="#333333" stroke-width="3.02707" stroke-linecap="round"/>
<path opacity="0.4" d="M47.8025 59.7707C47.4778 60.541 47.839 61.4286 48.6093 61.7533C49.3795 62.078 50.2672 61.7168 50.5918 60.9465L49.1971 60.3586L47.8025 59.7707ZM51.7775 55.7193L50.5999 54.7685L50.5999 54.7685L51.7775 55.7193ZM55.6315 52.2885L54.8114 51.0164L55.6315 52.2885ZM60.7419 51.6439C61.5333 51.3748 61.9567 50.5151 61.6877 49.7237C61.4186 48.9323 60.5589 48.5089 59.7675 48.778L60.2547 50.2109L60.7419 51.6439ZM49.1971 60.3586C50.5918 60.9465 50.5918 60.9466 50.5918 60.9467C50.5918 60.9467 50.5917 60.9468 50.5917 60.9469C50.5917 60.9469 50.5917 60.947 50.5917 60.9469C50.5917 60.9469 50.5918 60.9467 50.592 60.9463C50.5923 60.9455 50.5929 60.9439 50.5939 60.9417C50.5958 60.9373 50.5988 60.9301 50.6031 60.9202C50.6115 60.9005 50.6246 60.8701 50.6419 60.8303C50.6767 60.7506 50.7285 60.6331 50.7951 60.4862C50.9285 60.1918 51.1195 59.7828 51.3491 59.3264C51.8221 58.3864 52.4081 57.3477 52.9551 56.6701L51.7775 55.7193L50.5999 54.7685C49.8396 55.7103 49.1354 56.9912 48.645 57.966C48.3929 58.467 48.184 58.9142 48.0379 59.2367C47.9647 59.3983 47.9069 59.5293 47.8669 59.6211C47.8469 59.667 47.8313 59.7031 47.8205 59.7284C47.815 59.7411 47.8108 59.751 47.8078 59.7581C47.8063 59.7617 47.8051 59.7645 47.8042 59.7666C47.8038 59.7677 47.8034 59.7685 47.8031 59.7692C47.8029 59.7696 47.8028 59.7699 47.8027 59.7701C47.8027 59.7703 47.8026 59.7704 47.8026 59.7705C47.8025 59.7706 47.8025 59.7707 49.1971 60.3586ZM51.7775 55.7193L52.9551 56.6701C54.1057 55.2449 54.8753 54.5768 56.4516 53.5606L55.6315 52.2885L54.8114 51.0164C52.9899 52.1907 51.9715 53.0696 50.5999 54.7685L51.7775 55.7193ZM55.6315 52.2885L56.4516 53.5606C57.1564 53.1062 58.2025 52.63 59.1356 52.2505C59.5896 52.0659 59.9948 51.913 60.2859 51.8064C60.4312 51.7532 60.5474 51.7119 60.6263 51.6841C60.6657 51.6703 60.6957 51.6598 60.7154 51.653C60.7252 51.6496 60.7324 51.6472 60.7368 51.6456C60.7391 51.6449 60.7406 51.6443 60.7415 51.6441C60.7419 51.6439 60.7421 51.6438 60.7422 51.6438C60.7423 51.6438 60.7422 51.6438 60.7422 51.6438C60.7422 51.6438 60.7421 51.6438 60.7421 51.6439C60.742 51.6439 60.7419 51.6439 60.2547 50.2109C59.7675 48.778 59.7673 48.778 59.7672 48.7781C59.7672 48.7781 59.767 48.7781 59.7669 48.7782C59.7667 48.7782 59.7664 48.7783 59.7661 48.7784C59.7654 48.7787 59.7646 48.779 59.7636 48.7793C59.7616 48.78 59.7588 48.7809 59.7554 48.7821C59.7486 48.7844 59.7389 48.7877 59.7266 48.792C59.702 48.8005 59.6668 48.8128 59.6219 48.8285C59.5322 48.8601 59.4039 48.9058 59.2455 48.9638C58.9291 49.0796 58.4896 49.2454 57.9953 49.4464C57.0318 49.8383 55.7662 50.4008 54.8114 51.0164L55.6315 52.2885Z" fill="white"/>
<path opacity="0.6" d="M55.121 109.316C55.0463 106.993 54.9655 104.486 54.1059 103.307C53.8315 102.93 53.5598 102.567 53.291 102.214C56.614 103.497 60.2865 104.636 63.4495 104.953C72.5867 105.868 78.5347 105.217 86.5988 100.83C94.618 96.4669 97.753 91.358 102.4 83.7858L102.402 83.7812C102.588 83.4795 102.775 83.1739 102.965 82.8642C104.742 79.9745 106.207 76.484 107.411 72.8198C107.648 76.0517 107.355 79.4712 106.575 83.2609C105.139 90.2449 102.66 93.6406 99.2776 98.2751C98.1869 99.7696 97.0022 101.393 95.7281 103.307C94.9739 104.44 95.2487 106.591 95.5268 108.767C95.7343 110.392 95.9437 112.031 95.7281 113.271C95.0861 116.963 93.2055 119.829 90.8091 122.983C87.9884 126.694 80.845 128.541 80.845 128.541H69.7457C69.7457 128.541 59.7561 126.427 58.0158 121.721C57.047 119.102 56.7983 118.131 56.4314 116.698C56.216 115.857 55.9598 114.857 55.4933 113.271C55.2183 112.336 55.171 110.867 55.121 109.316Z" fill="#D4AE43"/>
<ellipse opacity="0.2" cx="55.7455" cy="87.9262" rx="6.05414" ry="6.05415" fill="#FF5E5E"/>
<ellipse opacity="0.2" cx="95.0971" cy="85.9089" rx="6.05414" ry="6.05415" fill="#FF5E5E"/>
<path d="M74.8111 112.383C67.0404 112.349 55.0017 110.621 55.0017 110.621C55.0017 110.621 54.921 115.959 55.8715 120.712C56.6283 124.495 58.4459 127.363 62.5563 130.676C66.6223 133.953 70.5779 136.416 75.7998 136.351C80.8883 136.289 84.6524 133.961 88.5387 130.676C92.7628 127.105 93.4577 125.126 94.4667 120.712C95.5491 115.976 95.9866 110.621 95.9866 110.621C95.9866 110.621 82.9802 112.419 74.8111 112.383Z" fill="#00A2B9"/>
<path opacity="0.6" d="M95.2848 116.364C92.8608 120.43 89.2652 125.749 86.0852 127.625C80.9414 130.66 79.0971 130.719 73.0336 130.69C68.946 130.671 63.7341 129.414 59.9395 128.311C60.6872 129.086 61.5536 129.868 62.5564 130.676C66.6223 133.953 70.5779 136.416 75.7998 136.352C80.8883 136.289 84.6524 133.961 88.5387 130.676C92.7629 127.105 93.4577 125.126 94.4668 120.712C94.7978 119.263 95.0685 117.757 95.2848 116.364Z" fill="#00879A" stroke="#00A2B9" stroke-width="0.252256"/>
<path d="M49.9074 110.14C50.1596 109.257 66.3578 102.669 66.3578 102.669L69.5095 111.128C69.5095 111.128 53.5651 119.473 52.8083 118.969C52.0515 118.464 50.2534 116.927 49.6551 115.058C49.0684 113.227 49.6551 111.022 49.9074 110.14Z" fill="#F5BC1C"/>
<path opacity="0.6" d="M69.4111 111.178C68.0724 111.877 53.5304 119.449 52.8085 118.968C52.3579 118.667 51.5381 118.001 50.8223 117.116L68.3478 108.987L69.4111 111.178Z" fill="#D4AE43"/>
<path d="M65.1661 102.561L69.1335 111.735L77.2024 108.027C77.2024 108.027 79.5776 109.697 81.3324 110.167C85.1867 111.197 88.171 110.334 91.2784 107.832C94.6236 105.138 95.9979 102.018 95.6457 97.7376C95.2994 93.5304 93.6263 90.5301 89.8727 88.5987C86.2565 86.738 82.732 86.5463 79.4655 88.9689C77.3394 90.5457 75.8948 94.7303 75.8948 94.7303C75.8948 94.7303 76.4839 91.8715 75.9259 90.4476C75.2573 88.7415 74.6427 87.3972 72.8873 86.8856C70.981 86.3301 69.3596 86.6653 67.5422 88.3995C65.7247 90.1337 65.9985 91.771 67.0839 94.7257C67.9043 96.959 70.902 99.4004 70.902 99.4004L65.1661 102.561Z" fill="#F5F5F5"/>
<path opacity="0.2" d="M93.4084 91.4156C93.3124 92.7733 93.1241 94.7876 92.7872 96.2576C92.75 96.42 92.7143 96.5772 92.6796 96.7299C92.2695 98.536 92.0008 99.7191 91.0498 101.445C91.0205 101.498 90.9917 101.551 90.9633 101.602C90.3273 102.758 89.9259 103.488 88.9174 104.41C87.1892 105.991 85.7295 106.705 83.3826 106.739C81.1184 106.771 77.9472 104.722 77.9472 104.722L68.0246 109.172L69.1327 111.734L77.2016 108.026C77.2016 108.026 79.5768 109.697 81.3316 110.166C85.1858 111.197 88.1702 110.334 91.2775 107.831C94.6228 105.137 95.9971 102.018 95.6448 97.7369C95.4362 95.2016 94.7457 93.1045 93.4084 91.4156Z" fill="#CACACA"/>
<path opacity="0.2" d="M78.8098 98.3844C78.016 99.2207 76.2047 99.5294 76.2764 99.901C76.3481 100.272 78.0923 100.323 79.0966 99.8705C80.0311 99.4497 80.5446 98.9337 80.9151 97.9781C81.226 97.176 81.2652 96.5968 81.0042 95.7772C80.8292 95.2278 80.3697 94.4866 80.2459 94.5105C80.122 94.5344 80.2382 95.7511 79.9852 96.4876C79.7021 97.3118 79.4097 97.7523 78.8098 98.3844Z" fill="#CACACA"/>
<path opacity="0.6" d="M67.5551 95.6913C67.5818 94.5902 67.744 92.6926 68.4962 91.5798C69.2572 90.4541 69.8331 89.6409 71.1579 89.3389C72.2713 89.0852 73.0281 89.5148 73.9207 90.0215C74.206 90.1834 74.5052 90.3533 74.8343 90.5111C75.2401 90.7058 75.7603 91.0081 76.1116 91.2188C76.0739 90.937 76.0142 90.6743 75.9254 90.4478C75.2568 88.7417 74.6422 87.3974 72.8867 86.8858C70.9805 86.3303 69.359 86.6655 67.5416 88.3997C65.7242 90.1338 65.998 91.7712 67.0834 94.7259C67.201 95.046 67.3633 95.3704 67.5551 95.6913Z" fill="white"/>
<path opacity="0.6" d="M75.9038 95.7072C75.9038 95.7072 77.4583 92.4936 79.0963 90.9873C80.229 89.9457 80.9347 89.3315 82.3847 88.8164C83.6953 88.3509 84.6637 88.4222 85.8507 88.5097C86.2393 88.5383 86.6514 88.5687 87.1066 88.5825C88.1217 88.6133 89.4374 88.7673 90.4288 88.9018C90.2486 88.7981 90.0631 88.6971 89.8723 88.5989C86.256 86.7382 82.7316 86.5465 79.4651 88.9691C77.7914 90.2104 76.5401 93.0676 76.0833 94.2274C75.9503 95.069 75.9038 95.7072 75.9038 95.7072Z" fill="white"/>
<path d="M103.93 43.9777L107.038 41.1084C108.437 41.422 109.806 41.6059 111.145 41.6603C112.485 41.7147 113.726 41.581 114.868 41.2593C116.044 40.9414 117.068 40.379 117.942 39.572C118.574 38.9892 118.904 38.4051 118.933 37.8198C118.996 37.2383 118.758 36.6556 118.219 36.0717C117.749 35.5631 117.246 35.2776 116.708 35.2154C116.171 35.1531 115.684 35.3237 115.247 35.7272C114.988 35.9663 114.788 36.2037 114.645 36.4396C114.521 36.6943 114.38 36.9639 114.223 37.2485L109.896 34.0723C110.13 33.6117 110.383 33.1868 110.653 32.7976C110.94 32.3935 111.261 32.027 111.617 31.6982C113.025 30.3981 114.578 29.8717 116.276 30.1189C118.007 30.3701 119.724 31.4187 121.429 33.2648C123.168 35.1485 124.078 36.995 124.16 38.8042C124.241 40.6135 123.489 42.2504 121.902 43.7149C120.899 44.6414 119.778 45.3104 118.538 45.7218C117.299 46.1332 115.943 46.3209 114.471 46.2847C113.031 46.2524 111.502 46.0415 109.883 45.6519L107.504 47.8487L103.93 43.9777ZM98.6769 48.5662L102.197 45.3159L106.058 49.4977L102.538 52.7481L98.6769 48.5662Z" fill="#018598"/>
<rect x="109.465" y="31.5864" width="1.42296" height="2.52412" transform="rotate(-9.86848 109.465 31.5864)" fill="#018598"/>
<rect x="103.508" y="41.491" width="1.50479" height="2.536" transform="rotate(-9.80955 103.508 41.491)" fill="#018598"/>
<rect x="104.061" y="47.28" width="1.59785" height="2.52809" transform="rotate(-9.80955 104.061 47.28)" fill="#018598"/>
<rect x="98.248" y="46.0776" width="1.80028" height="2.52903" transform="rotate(-9.80955 98.248 46.0776)" fill="#018598"/>
<path d="M103.5 41.4913L106.608 38.6221C108.007 38.9356 109.376 39.1196 110.716 39.174C112.055 39.2284 113.296 39.0947 114.438 38.773C115.614 38.4551 116.639 37.8927 117.513 37.0857C118.144 36.5029 118.474 35.9188 118.503 35.3335C118.566 34.752 118.328 34.1693 117.789 33.5854C117.319 33.0768 116.816 32.7913 116.279 32.729C115.741 32.6667 115.254 32.8373 114.817 33.2408C114.558 33.4799 114.358 33.7174 114.216 33.9533C114.091 34.2079 113.95 34.4776 113.793 34.7621L109.466 31.586C109.701 31.1253 109.953 30.7004 110.223 30.3113C110.51 29.9071 110.831 29.5407 111.187 29.2119C112.595 27.9118 114.148 27.3853 115.846 27.6326C117.577 27.8838 119.295 28.9324 120.999 30.7784C122.738 32.6622 123.649 34.5086 123.73 36.3179C123.811 38.1272 123.059 39.764 121.473 41.2286C120.469 42.1551 119.348 42.8241 118.109 43.2355C116.869 43.6469 115.513 43.8345 114.041 43.7984C112.602 43.7661 111.073 43.5552 109.454 43.1656L107.075 45.3624L103.5 41.4913ZM98.2472 46.0799L101.768 42.8295L105.629 47.0114L102.108 50.2618L98.2472 46.0799Z" fill="#00A2B9"/>
<path d="M89.2282 32.3122L90.1758 26.8397C91.8843 26.0493 93.4583 25.1476 94.8979 24.1345C96.3375 23.1214 97.5241 21.9911 98.4576 20.7436C99.4292 19.4733 100.048 18.0686 100.315 16.5295C100.507 15.4179 100.385 14.5454 99.948 13.9119C99.5491 13.2557 98.8355 12.8386 97.8072 12.6605C96.9115 12.5054 96.1589 12.61 95.5491 12.9741C94.9394 13.3382 94.5679 13.9051 94.4347 14.6747C94.3557 15.1307 94.3364 15.5384 94.3767 15.8976C94.4501 16.2626 94.5187 16.6561 94.5823 17.0782L87.5359 17.2232C87.4123 16.5559 87.3359 15.9115 87.3069 15.29C87.2828 14.6399 87.325 14.0014 87.4336 13.3743C87.863 10.8946 89.061 9.10578 91.0278 8.00783C93.0327 6.88713 95.6606 6.60823 98.9114 7.17113C102.229 7.74551 104.652 8.94311 106.182 10.7639C107.712 12.5847 108.235 14.8917 107.751 17.685C107.445 19.4522 106.81 21.045 105.847 22.4635C104.884 23.882 103.621 25.1605 102.057 26.2988C100.531 27.4144 98.7691 28.4157 96.7705 29.3027L96.045 33.4925L89.2282 32.3122ZM87.4174 41.2902L88.4908 35.0908L95.855 36.366L94.7816 42.5653L87.4174 41.2902Z" fill="#018598"/>
<rect x="85.1016" y="14.9753" width="1.86847" height="3.31438" transform="rotate(-47.3285 85.1016 14.9753)" fill="#018598"/>
<rect x="86.8008" y="30.0571" width="1.97591" height="3.32998" transform="rotate(-47.2696 86.8008 30.0571)" fill="#018598"/>
<rect x="92" y="35.6489" width="2.09811" height="3.31959" transform="rotate(-47.2696 92 35.6489)" fill="#018598"/>
<rect x="84.9824" y="39.0381" width="2.36391" height="3.32083" transform="rotate(-47.2696 84.9824 39.0381)" fill="#018598"/>
<path d="M86.7946 30.0627L87.7422 24.5902C89.4507 23.7998 91.0248 22.8981 92.4643 21.885C93.9039 20.8719 95.0905 19.7416 96.024 18.4941C96.9956 17.2238 97.6147 15.8191 97.8812 14.28C98.0736 13.1684 97.9514 12.2959 97.5144 11.6624C97.1155 11.0062 96.4019 10.5891 95.3736 10.411C94.4779 10.2559 93.7253 10.3605 93.1155 10.7246C92.5058 11.0887 92.1343 11.6556 92.0011 12.4252C91.9221 12.8812 91.9028 13.2888 91.9431 13.6481C92.0165 14.0131 92.0851 14.4066 92.1487 14.8286L85.1023 14.9736C84.9787 14.3064 84.9023 13.662 84.8733 13.0405C84.8492 12.3904 84.8914 11.7519 85 11.1248C85.4294 8.6451 86.6274 6.85627 88.5942 5.75832C90.5991 4.63762 93.227 4.35872 96.4778 4.92161C99.7951 5.496 102.219 6.6936 103.748 8.5144C105.278 10.3352 105.801 12.6422 105.317 15.4355C105.011 17.2026 104.377 18.7955 103.414 20.214C102.451 21.6325 101.187 22.911 99.6233 24.0493C98.0976 25.1649 96.3355 26.1662 94.3369 27.0532L93.6115 31.243L86.7946 30.0627ZM84.9838 39.0406L86.0572 32.8413L93.4214 34.1165L92.348 40.3158L84.9838 39.0406Z" fill="#00A2B9"/>
</svg>
