<svg width="152" height="152" viewBox="0 0 152 152" fill="none" xmlns="http://www.w3.org/2000/svg">
<path d="M62.6697 20.7349L20.75 31.9795L31.6499 72.6062L33.7754 80.544L33.7877 80.5822L35.5684 87.2202L39.6436 102.408L41.4312 109.083L96.4703 94.3202L94.6759 87.6453L90.6007 72.4577L88.8254 65.8196L88.8131 65.7815L86.6822 57.8436L79.3697 30.5734L62.6697 20.7349Z" fill="#C9C9C9"/>
<path d="M62.6697 20.7349L20.75 31.9795L31.6499 72.6062L33.7754 80.544L33.7877 80.5822L35.5684 87.2202L39.6436 102.408L41.4312 109.083L96.4703 94.3202L94.6759 87.6453L90.6007 72.4577L88.8254 65.8196L88.8131 65.7815L86.6822 57.8436L79.3697 30.5734L62.6697 20.7349Z" fill="#1A8086"/>
<path d="M66.2486 34.0912L79.368 30.5719L62.668 20.7334L66.2486 34.0912Z" fill="#36AEB4"/>
<path d="M89.7628 92.2681L82.3372 100.256L74.8994 92.606L67.6864 100.256L60.8617 92.606L52.917 100.256L46.4043 92.606V115.244H103.388V92.606L96.0806 100.256L89.7628 92.2681Z" fill="#36AEB4"/>
<path d="M89.8064 35.4155H46.4043V77.4796V85.7363L52.917 93.3799L60.8617 85.7363L67.6864 93.3799L74.8994 85.7363L82.3372 93.3799L89.7628 85.3984L96.082 93.3799L103.389 85.7363V77.4796V49.2421L89.8064 35.4155Z" fill="#E9E9E9"/>
<path d="M89.7628 84.9999L82.3372 92.9882L74.8994 85.3378L67.6864 92.9882L60.8617 85.3378L52.917 92.9882L46.4043 85.3378V107.976H103.388V85.3378L96.0806 92.9882L89.7628 84.9999Z" fill="#D0FDFF"/>
<path d="M89.8064 35.4155H46.4043V85.7363L52.917 93.3799L60.8617 85.7363L67.6864 93.3799L74.8994 85.7363L82.3373 93.3799L89.7628 85.3984L96.082 93.3799L103.389 85.7363V49.2421L89.8064 35.4155Z" fill="#D0FDFF"/>
<path d="M89.8066 49.2422H103.388L89.8066 35.417V49.2422Z" fill="#36AEB4"/>
<path d="M93.6768 59.3233H57.2629C56.3255 59.3233 55.5625 58.5603 55.5625 57.6229V56.3735C55.5625 55.4361 56.3255 54.6731 57.2629 54.6731H93.67C94.6073 54.6731 95.3703 55.4361 95.3703 56.3735V57.6229C95.3758 58.5603 94.6142 59.3233 93.6768 59.3233Z" fill="#BCBBBB"/>
<path d="M93.6768 59.3233H57.2629C56.3255 59.3233 55.5625 58.5603 55.5625 57.6229V56.3735C55.5625 55.4361 56.3255 54.6731 57.2629 54.6731H93.67C94.6073 54.6731 95.3703 55.4361 95.3703 56.3735V57.6229C95.3758 58.5603 94.6142 59.3233 93.6768 59.3233Z" fill="#36AEB4"/>
<path d="M93.6768 69.5677H57.2629C56.3255 69.5677 55.5625 68.8047 55.5625 67.8673V66.6179C55.5625 65.6805 56.3255 64.9175 57.2629 64.9175H93.67C94.6073 64.9175 95.3703 65.6805 95.3703 66.6179V67.8673C95.3758 68.8047 94.6142 69.5677 93.6768 69.5677Z" fill="#BCBBBB"/>
<path d="M93.6768 69.5677H57.2629C56.3255 69.5677 55.5625 68.8047 55.5625 67.8673V66.6179C55.5625 65.6805 56.3255 64.9175 57.2629 64.9175H93.67C94.6073 64.9175 95.3703 65.6805 95.3703 66.6179V67.8673C95.3758 68.8047 94.6142 69.5677 93.6768 69.5677Z" fill="#36AEB4"/>
<path d="M93.6768 79.8123H57.2629C56.3255 79.8123 55.5625 79.0493 55.5625 78.1119V76.8625C55.5625 75.9251 56.3255 75.1621 57.2629 75.1621H93.67C94.6073 75.1621 95.3703 75.9251 95.3703 76.8625V78.1119C95.3758 79.0493 94.6142 79.8123 93.6768 79.8123Z" fill="#BCBBBB"/>
<path d="M94.6768 79.8123H58.2629C57.3255 79.8123 56.5625 79.0493 56.5625 78.1119V76.8625C56.5625 75.9251 57.3255 75.1621 58.2629 75.1621H94.67C95.6073 75.1621 96.3703 75.9251 96.3703 76.8625V78.1119C96.3758 79.0493 95.6142 79.8123 94.6768 79.8123Z" fill="#36AEB4"/>
<path d="M110.58 101.638L116.192 113.564L117.823 112.801L112.248 100.851L110.58 101.638Z" fill="#C88503"/>
<path d="M115.255 99.4375L112.248 100.85L117.823 112.801L120.86 111.369L115.255 99.4375Z" fill="#E2E2E2"/>
<path d="M115.255 99.4375L112.248 100.85L117.823 112.801L120.86 111.369L115.255 99.4375Z" fill="#FFAE10"/>
<path d="M97.5164 68.8294C87.8291 73.3855 83.6653 84.9299 88.2228 94.6172C92.779 104.305 104.323 108.468 114.011 103.911C123.698 99.3546 127.862 87.8102 123.304 78.1229C118.747 68.4356 107.204 64.28 97.5164 68.8294ZM111.322 98.1937C104.797 101.262 97.0163 98.4621 93.9466 91.9304C90.8783 85.3986 93.6782 77.6242 100.21 74.5546C106.735 71.4862 114.516 74.2861 117.586 80.8179C120.654 87.3497 117.849 95.1254 111.322 98.1937Z" fill="#E2E2E2"/>
<path d="M97.5164 68.8294C87.8291 73.3855 83.6653 84.9299 88.2228 94.6172C92.779 104.305 104.323 108.468 114.011 103.911C123.698 99.3546 127.862 87.8102 123.304 78.1229C118.747 68.4356 107.204 64.28 97.5164 68.8294ZM111.322 98.1937C104.797 101.262 97.0163 98.4621 93.9466 91.9304C90.8783 85.3986 93.6782 77.6242 100.21 74.5546C106.735 71.4862 114.516 74.2861 117.586 80.8179C120.654 87.3497 117.849 95.1254 111.322 98.1937Z" fill="url(#paint0_linear_6707_108010)"/>
<path d="M97.5164 68.8294C87.8291 73.3855 83.6653 84.9299 88.2228 94.6172C92.779 104.305 104.323 108.468 114.011 103.911C123.698 99.3546 127.862 87.8102 123.304 78.1229C118.747 68.4356 107.204 64.28 97.5164 68.8294ZM111.322 98.1937C104.797 101.262 97.0163 98.4621 93.9466 91.9304C90.8783 85.3986 93.6782 77.6242 100.21 74.5546C106.735 71.4862 114.516 74.2861 117.586 80.8179C120.654 87.3497 117.849 95.1254 111.322 98.1937Z" fill="#FFAE10"/>
<path d="M115.429 95.143C120.286 89.8116 119.898 81.5481 114.562 76.6922C109.228 71.8363 100.966 72.2232 96.1086 77.5546C91.2513 82.8929 91.6396 91.155 96.9751 96.0109C102.309 100.868 110.571 100.481 115.429 95.143Z" fill="#C9C9C9"/>
<path d="M115.429 95.143C120.286 89.8116 119.898 81.5481 114.562 76.6922C109.228 71.8363 100.966 72.2232 96.1086 77.5546C91.2513 82.8929 91.6396 91.155 96.9751 96.0109C102.309 100.868 110.571 100.481 115.429 95.143Z" fill="#F5E66C"/>
<path d="M111.969 111.606L121.394 131.644L124.083 130.381L114.669 110.331L111.969 111.606Z" fill="#C88503"/>
<path d="M122.048 106.863L114.666 110.332L124.079 130.383L131.474 126.907L122.048 106.863Z" fill="#E2E2E2"/>
<path d="M122.048 106.863L114.666 110.332L124.079 130.383L131.474 126.907L122.048 106.863Z" fill="#FFAE10"/>
<defs>
<linearGradient id="paint0_linear_6707_108010" x1="105.764" y1="66.9854" x2="105.764" y2="105.76" gradientUnits="userSpaceOnUse">
<stop stop-color="#FFFCFC"/>
<stop offset="1" stop-color="#ECECEC"/>
</linearGradient>
</defs>
</svg>
